<?xml version="1.0" encoding="UTF-8"?>
<!DOCTYPE svg PUBLIC "-//W3C//DTD SVG 1.1//EN" "http://www.w3.org/Graphics/SVG/1.1/DTD/svg11.dtd">
<svg xmlns="http://www.w3.org/2000/svg" version="1.1" width="512px" height="512px" style="shape-rendering:geometricPrecision; text-rendering:geometricPrecision; image-rendering:optimizeQuality; fill-rule:evenodd; clip-rule:evenodd" xmlns:xlink="http://www.w3.org/1999/xlink">
<g><path style="opacity:0.992" fill="#bf392b" d="M 392.5,490.5 C 301.167,490.5 209.833,490.5 118.5,490.5C 118.333,330.5 118.5,170.5 119,10.5C 119.685,7.94273 121.185,6.1094 123.5,5C 211.5,4.33333 299.5,4.33333 387.5,5C 389.815,6.1094 391.315,7.94273 392,10.5C 392.5,170.5 392.667,330.5 392.5,490.5 Z"/></g>
<g><path style="opacity:1" fill="#802f33" d="M 153.5,38.5 C 164.5,38.5 175.5,38.5 186.5,38.5C 185.924,55.9132 177.257,67.0799 160.5,72C 158.19,72.4966 155.857,72.6633 153.5,72.5C 153.5,61.1667 153.5,49.8333 153.5,38.5 Z"/></g>
<g><path style="opacity:1" fill="#802f33" d="M 357.5,115.5 C 357.832,147.338 357.498,179.004 356.5,210.5C 338.329,208.004 330.329,216.004 332.5,234.5C 320.495,234.333 308.495,234.5 296.5,235C 289.24,238.077 287.74,242.911 292,249.5C 293.33,250.582 294.83,251.249 296.5,251.5C 307.988,252.495 319.655,252.828 331.5,252.5C 331.171,267.01 331.504,281.343 332.5,295.5C 335.319,308.635 343.319,313.635 356.5,310.5C 357.498,336.328 357.831,362.328 357.5,388.5C 316.217,391.398 291.05,413.065 282,453.5C 281.501,457.486 281.334,461.486 281.5,465.5C 264.167,465.5 246.833,465.5 229.5,465.5C 228.507,435.003 214.84,412.17 188.5,397C 177.396,391.798 165.73,388.964 153.5,388.5C 153.5,297.5 153.5,206.5 153.5,115.5C 187.688,113.456 211.522,96.7898 225,65.5C 227.942,56.7391 229.442,47.7391 229.5,38.5C 246.833,38.5 264.167,38.5 281.5,38.5C 283.882,77.7113 303.882,102.878 341.5,114C 346.78,115.095 352.113,115.595 357.5,115.5 Z"/></g>
<g><path style="opacity:1" fill="#802f33" d="M 324.5,38.5 C 335.5,38.5 346.5,38.5 357.5,38.5C 357.5,49.8333 357.5,61.1667 357.5,72.5C 340.63,71.4708 329.797,62.8041 325,46.5C 324.503,43.854 324.336,41.1873 324.5,38.5 Z"/></g>
<g><path style="opacity:1" fill="#a5362e" d="M 357.5,115.5 C 358.498,147.329 358.832,179.329 358.5,211.5C 357.508,211.672 356.842,211.338 356.5,210.5C 357.498,179.004 357.832,147.338 357.5,115.5 Z"/></g>
<g><path style="opacity:1" fill="#efc319" d="M 356.5,210.5 C 356.842,211.338 357.508,211.672 358.5,211.5C 361.697,214.189 364.197,217.523 366,221.5C 366.667,247.167 366.667,272.833 366,298.5C 364.464,302.931 361.964,306.597 358.5,309.5C 357.508,309.328 356.842,309.662 356.5,310.5C 343.319,313.635 335.319,308.635 332.5,295.5C 332.5,280.833 332.5,266.167 332.5,251.5C 336.514,251.666 340.514,251.499 344.5,251C 350.267,247.062 350.934,242.395 346.5,237C 341.761,235.949 337.094,235.115 332.5,234.5C 330.329,216.004 338.329,208.004 356.5,210.5 Z"/></g>
<g><path style="opacity:1" fill="#f0d15a" d="M 332.5,234.5 C 337.094,235.115 341.761,235.949 346.5,237C 350.934,242.395 350.267,247.062 344.5,251C 340.514,251.499 336.514,251.666 332.5,251.5C 320.5,251.5 308.5,251.5 296.5,251.5C 294.83,251.249 293.33,250.582 292,249.5C 287.74,242.911 289.24,238.077 296.5,235C 308.495,234.5 320.495,234.333 332.5,234.5 Z"/></g>
<g><path style="opacity:1" fill="#9f5a36" d="M 296.5,251.5 C 308.5,251.5 320.5,251.5 332.5,251.5C 332.5,266.167 332.5,280.833 332.5,295.5C 331.504,281.343 331.171,267.01 331.5,252.5C 319.655,252.828 307.988,252.495 296.5,251.5 Z"/></g>
<g><path style="opacity:1" fill="#a5362e" d="M 356.5,310.5 C 356.842,309.662 357.508,309.328 358.5,309.5C 358.831,336.005 358.498,362.339 357.5,388.5C 357.831,362.328 357.498,336.328 356.5,310.5 Z"/></g>
<g><path style="opacity:1" fill="#802f33" d="M 153.5,431.5 C 171.272,432.944 182.272,442.278 186.5,459.5C 186.5,461.167 186.5,462.833 186.5,464.5C 175.5,464.5 164.5,464.5 153.5,464.5C 153.5,453.5 153.5,442.5 153.5,431.5 Z"/></g>
<g><path style="opacity:1" fill="#802f33" d="M 357.5,431.5 C 357.5,442.5 357.5,453.5 357.5,464.5C 346.5,464.5 335.5,464.5 324.5,464.5C 324.5,462.833 324.5,461.167 324.5,459.5C 327.66,445.712 335.993,436.546 349.5,432C 352.146,431.503 354.813,431.336 357.5,431.5 Z"/></g>
<g><path style="opacity:1" fill="#963230" d="M 153.5,431.5 C 153.5,442.5 153.5,453.5 153.5,464.5C 164.5,464.5 175.5,464.5 186.5,464.5C 186.5,462.833 186.5,461.167 186.5,459.5C 187.461,461.265 187.795,463.265 187.5,465.5C 175.833,465.5 164.167,465.5 152.5,465.5C 152.172,453.988 152.505,442.654 153.5,431.5 Z"/></g>
<g><path style="opacity:1" fill="#963230" d="M 357.5,431.5 C 358.495,442.654 358.828,453.988 358.5,465.5C 346.833,465.5 335.167,465.5 323.5,465.5C 323.205,463.265 323.539,461.265 324.5,459.5C 324.5,461.167 324.5,462.833 324.5,464.5C 335.5,464.5 346.5,464.5 357.5,464.5C 357.5,453.5 357.5,442.5 357.5,431.5 Z"/></g>
<g><path style="opacity:0.957" fill="#2e3e4f" d="M 118.5,490.5 C 209.833,490.5 301.167,490.5 392.5,490.5C 430.501,490.333 468.501,490.5 506.5,491C 508.687,492.025 510.354,493.525 511.5,495.5C 511.5,498.167 511.5,500.833 511.5,503.5C 510.146,505.696 508.146,507.196 505.5,508C 338.833,508.667 172.167,508.667 5.5,508C 2.85408,507.196 0.854084,505.696 -0.5,503.5C -0.5,500.833 -0.5,498.167 -0.5,495.5C 0.646381,493.525 2.31305,492.025 4.5,491C 42.4985,490.5 80.4985,490.333 118.5,490.5 Z"/></g>
</svg>
