<?xml version="1.0" encoding="UTF-8"?>
<svg width="214.72mm" height="326.96mm" version="1.1" viewBox="0 0 760.82469 1158.5298" xmlns="http://www.w3.org/2000/svg" xmlns:xlink="http://www.w3.org/1999/xlink">
 <defs>
  <clipPath id="n">
   <use transform="matrix(4.4081 0 0 4.4081 -2856.8 -4443.6)" width="100%" height="100%" xlink:href="#p"/>
  </clipPath>
  <filter id="j" color-interpolation-filters="sRGB">
   <feFlood result="result2"/>
   <feTurbulence baseFrequency="0.185 0" k3="1.4199999999999999" numOctaves="8" result="result1" seed="52.706552706552706"/>
   <feComposite baseFrequency="0.96299999999999997 0" in="result2" in2="result1" operator="in" result="result6"/>
   <feTurbulence baseFrequency="0 0.097014925373134331" numOctaves="4" result="result3" seed="131"/>
   <feComposite baseFrequency="0.031 0" in="result2" in2="result3" operator="in"/>
   <feComposite in2="result6" k2="0.74" k3="1.4245014" operator="arithmetic" result="result8"/>
   <feComponentTransfer baseFrequency="0 0.097000000000000003">
    <feFuncR type="identity"/>
    <feFuncG type="identity"/>
    <feFuncB type="identity"/>
    <feFuncA amplitude="3.1899999999999999" exponent="2.48" type="gamma"/>
   </feComponentTransfer>
   <feDiffuseLighting diffuseConstant="1.15999997" surfaceScale="-4.94301987">
    <feDistantLight azimuth="45" elevation="15"/>
   </feDiffuseLighting>
   <feGaussianBlur result="result7" stdDeviation="0.20000000000000001" surfaceScale="-4.9429999999999996"/>
   <feComposite in="result8" in2="result7" k1="-2.76" k2="3.2" k3="1.23" operator="arithmetic"/>
   <feColorMatrix result="result11" type="luminanceToAlpha"/>
   <feComponentTransfer result="result10">
    <feFuncR type="identity"/>
    <feFuncG type="identity"/>
    <feFuncB type="identity"/>
    <feFuncA amplitude="1.8899999999999999" offset="-0.28000000000000003" type="gamma"/>
   </feComponentTransfer>
   <feColorMatrix in="SourceGraphic" result="result9" values="0.1 0 0 0 0 0 0.1 0 0 0 0 0 0.1 0 0 0 0 0 1 0 "/>
   <feComposite in="result9" in2="result10" operator="in"/>
   <feComponentTransfer in="result11" result="result13">
    <feFuncR type="identity"/>
    <feFuncG type="identity"/>
    <feFuncB type="identity"/>
    <feFuncA amplitude="3.02" exponent="2.4300000000000002" offset="0.87" type="gamma"/>
   </feComponentTransfer>
   <feFlood flood-color="rgb(255,255,255)" result="result12"/>
   <feComposite in="result12" in2="result13" operator="in" result="result14"/>
   <feComposite in="SourceGraphic" in2="result11" operator="in" result="result15"/>
   <feComposite in2="result13" result="result16"/>
   <feComposite in2="result14" operator="atop" result="result18"/>
   <feOffset dx="0" dy="-14" result="result17"/>
   <feComposite in="result18" in2="result17" k1="-0.97" k2="1.34" k3="1.03" operator="arithmetic" result="result22"/>
   <feMorphology baseFrequency="0.49399999999999999 0" radius="1.8999999999999999 1.5" result="result20"/>
   <feColorMatrix result="result19" type="luminanceToAlpha"/>
   <feDisplacementMap in="result20" in2="result19" k2="1.28" result="result21" scale="7.7" xChannelSelector="R"/>
   <feComposite in2="result22" k2="0.33" k3="0.67" operator="arithmetic" result="result23"/>
   <feComposite in2="SourceGraphic" operator="in" result="result24"/>
   <feBlend in2="SourceGraphic" mode="screen" result="result25"/>
   <feComposite in2="result24" k2="0.25" k3="0.75" operator="arithmetic" result="result27"/>
   <feTurbulence baseFrequency="0.025000000000000001" numOctaves="4.7820512820512819" result="result26" scale="0.59999999999999998" type="fractalNoise"/>
   <feDisplacementMap in="result27" in2="result26" numOctaves="5" result="result29" scale="7.5"/>
   <feTurbulence baseFrequency="0.10100000000000001 0" numOctaves="1.5128205128205128" result="result28" scale="3.6000000000000001" type="fractalNoise"/>
   <feDisplacementMap in="result29" in2="result28" numOctaves="2" scale="3.5612536"/>
  </filter>
  <clipPath id="m">
   <rect transform="matrix(.96155 -.27462 -.0047815 .99999 0 0)" x="-716.63" y="-1949.2" width="785.61" height="1566.9" rx="191.84" ry="698.3" fill="#800080" fill-rule="evenodd" stroke="#000" stroke-linecap="round" stroke-linejoin="round" stroke-width="56.016"/>
  </clipPath>
  <clipPath id="l">
   <rect transform="matrix(-.9871 -.16009 .12189 .99254 0 0)" x="1721.6" y="-436.69" width="785.61" height="1566.9" rx="191.84" ry="698.3" fill="#800080" fill-rule="evenodd" stroke="#000" stroke-linecap="round" stroke-linejoin="round" stroke-width="56.016"/>
  </clipPath>
  <clipPath id="k">
   <rect transform="matrix(-.2834 -.959 .92457 -.38102 0 0)" x="-95.715" y="-148.02" width="133.45" height="42.45" rx="17.948" ry="19.994" fill="#202020" stroke="#000" stroke-linecap="round" stroke-linejoin="bevel" stroke-width="2.0054"/>
  </clipPath>
  <filter id="i" color-interpolation-filters="sRGB">
   <feFlood result="result2"/>
   <feTurbulence baseFrequency="0.248 0" numOctaves="4" result="result1" type="fractalNoise"/>
   <feComposite baseFrequency="0.96299999999999997 0" in="result2" in2="result1" operator="in" result="result6"/>
   <feTurbulence baseFrequency="0 0.88700000000000001" result="result3"/>
   <feComposite in="result2" in2="result3" operator="in"/>
   <feComposite in2="result6" k2="0.5" k3="0.5" operator="arithmetic" result="result8"/>
   <feComponentTransfer>
    <feFuncR type="identity"/>
    <feFuncG type="identity"/>
    <feFuncB type="identity"/>
    <feFuncA amplitude="2.5099999999999998" exponent="0.94999999999999996" type="gamma"/>
   </feComponentTransfer>
   <feDiffuseLighting diffuseConstant="1.15999997" surfaceScale="-4.65199995">
    <feDistantLight azimuth="45" elevation="15"/>
   </feDiffuseLighting>
   <feGaussianBlur result="result7" stdDeviation="0.20000000000000001"/>
   <feComposite in="result8" in2="result7" k1="-2.76" k2="3.2" k3="1.23" operator="arithmetic"/>
   <feColorMatrix result="result11" type="luminanceToAlpha"/>
   <feComponentTransfer result="result10">
    <feFuncR type="identity"/>
    <feFuncG type="identity"/>
    <feFuncB type="identity"/>
    <feFuncA offset="-0.28000000000000003" type="gamma"/>
   </feComponentTransfer>
   <feColorMatrix in="SourceGraphic" result="result9" values="0.1 0 0 0 0 0 0.1 0 0 0 0 0 0.1 0 0 0 0 0 1 0 "/>
   <feComposite in="result9" in2="result10" operator="in"/>
   <feComponentTransfer in="result11" result="result13">
    <feFuncR type="identity"/>
    <feFuncG type="identity"/>
    <feFuncB type="identity"/>
    <feFuncA amplitude="6.3899999999999997" exponent="2.4300000000000002" offset="0.87" type="gamma"/>
   </feComponentTransfer>
   <feFlood flood-color="rgb(255,255,255)" result="result12"/>
   <feComposite in="result12" in2="result13" operator="in" result="result14"/>
   <feComposite in="SourceGraphic" in2="result11" operator="in" result="result15"/>
   <feComposite in2="result13" result="result16"/>
   <feComposite in2="result14" operator="atop" result="result18"/>
   <feOffset dx="-7" dy="-7" result="result17"/>
   <feComposite in="result18" in2="result17" k1="-0.97" k2="1.34" k3="1.03" operator="arithmetic" result="result22"/>
   <feMorphology operator="dilate" radius="0.59999999999999998 0.10000000000000001" result="result20"/>
   <feColorMatrix result="result19" type="luminanceToAlpha"/>
   <feDisplacementMap in="result20" in2="result19" k2="1.28" result="result21" scale="7.7" xChannelSelector="R"/>
   <feComposite in2="result22" k2="0.33" k3="0.67" operator="arithmetic" result="result23"/>
   <feComposite in2="SourceGraphic" operator="in" result="result24"/>
   <feBlend in2="SourceGraphic" mode="screen" result="result25"/>
   <feComposite in2="result24" k2="0.25" k3="0.75" operator="arithmetic" result="result27"/>
   <feTurbulence baseFrequency="0.0070000000000000001" numOctaves="1.9743589743589745" result="result26"/>
   <feDisplacementMap in="result27" in2="result26" numOctaves="2" result="result29" scale="3.1"/>
   <feTurbulence baseFrequency="0.248" numOctaves="2" result="result28" type="fractalNoise"/>
   <feDisplacementMap in="result29" in2="result28" scale="1.6"/>
  </filter>
  <clipPath id="o">
   <path d="m-109.23 60.545c0.25244-0.01456 0.50458 0.0013 0.75653-0.01327l1.0967-0.06324-2e-3 0.07171c16.863 0.23205 32.091 12.559 42.041 28.657 21.335 34.268 28.389 80.612 27.684 125.52-0.96584 11.562 0.31058 25.302-3.7393 35.512-13.887 11.61-37.812 14.798-54.163 18.267-4.3258 0.50087-11.186 0.96603-18.633 1.4498l-9.9e-4 0.0305c-0.78126 0.0451-1.5246 0.0879-2.2941 0.10185-0.0759 4e-3 -0.15035 9e-3 -0.22628 0.0131-7.4439 0.37486-14.299 0.70167-18.609 0.69768-16.187-1.5925-39.995-2.0288-53.176-12.078-3.3997-9.7815-1.223-23.72-1.439-35.214 2.2191-45.003 12.319-92.343 35.966-129.2 11.037-17.297 27.126-31.438 44.067-33.628l3e-3 -0.1001 0.66706-0.03847z" fill="#800080" fill-rule="evenodd" stroke="#000" stroke-linecap="round" stroke-linejoin="round" stroke-width="5.5195"/>
  </clipPath>
 </defs>
 <g transform="translate(12.91 -30.309)">
  <ellipse cx="647.16" cy="260.32" rx="96.539" ry="90.982" fill="#b3b3b3" stroke="#000" stroke-linecap="round" stroke-linejoin="bevel" stroke-width="8.4291"/>
  <path d="m611.62 293.33c3.9073 4.2863 6.0762 7.6566 6.0762 12.863 0 3.9823-3.4715 6.2792-7.8096 8.5797l1.7333 11.024c0 1.2271 0.86668 1.9928 0.86668 3.2166 0 11.947-14.966 18.072-31.239 21.288-13.233 2.6047-16.486 13.478-30.367 13.478-3.4715 0-5.4226-1.3775-6.9431-3.6746-4.1203 2.1432-6.0762 4.8983-11.281 4.8983-8.4583 0-13.446-3.828-21.474-5.6669-12.366-2.9089-15.283-1.6506-24.025-10.225-2.0253-1.9864-0.10866-5.6326 2.2737-7.3144-3.4666-0.91948-2.8743-2.1214-6.5634-2.1214-0.6488-6.5424-20.395-7.8047 10.541 31.291l-10.413-1.5498s-17.933-29.338-14.791-39.928c5.6303-3.0516 25.196-6.5071 9.083-10.663-3.6421-0.9395-15.348 2.5118-23.479 1.6211-8.1307-0.89069-13.21-3.8617-20.972-10.86-8.8745 0.10381-14.247 1.6696-14.247 1.6696-4.6812-18.059-22.838-35.025-29.288-43.118-48.224 10.301-6.6628-18.951-40.529-11.529-2.5334-7.3184-4.1271 5.73-4.1271 5.73l0.7065 2.4059s7.5112 11.726-6.2622 13.401c-13.33 5.0696-34.231-3.2537-39.401-6.021-15.225 3.1226-24.768 2.2032-40.818 2.2032-9.1123 0-13.886-3.6746-22.998-3.6746-5.8537 0-8.8942 3.0626-14.753 3.0626-10.628 0-15.401-5.5135-26.029-5.5135-11.063 0-17.14 3.0626-28.203 3.0626-31.456 0-68.112-8.5763-68.112-30.784v-13.782c0-5.6674 5.8537-8.5763 12.148-11.793-1.5203-2.9089-2.6048-4.7477-2.6048-7.9643 0-14.702 10.415-21.596 18.224-35.532l3.4715-0.61186 2.6 2.4509c0.86668-1.0733 2.6049-1.6852 2.6049-3.0626 0-5.3598-2.6049-8.4223-2.6049-13.785 0-12.558 9.33-20.827 26.034-26.648l6.9383 1.2271c2.8227-14.09 18.873-18.534 35.577-26.344 13.668-6.4332 19.091-15.925 35.577-15.925 5.4274 0 8.8942 1.0699 13.886 2.4474 12.148-17.306 35.359-19.603 61.604-19.603 8.4631 0 16.055-0.45802 20.829 4.2897 5.2049-3.6746 8.8942-6.1255 16.05-6.1255 8.0277 0 12.584 1.8355 20.611 1.8355h18.655c8.8942 0 13.45-2.4474 22.344-2.4474 12.797 0 20.175 2.7551 31.67 6.7372l17.358-1.839c8.0277 0.76569 12.579 4.2897 16.486 9.1915 3.0357-1.2271 4.9868-2.4508 8.6764-2.4508 7.81 0 13.234 3.2157 16.162 7.5796 2.7108-1.3001 4.662-2.0658 8.1335-2.0658 10.415 0 15.188 4.8983 22.372 8.8552l9.5156 0.92758c15.362 1.4975 29.326 12.757 29.793 19.052 3.6083-0.97933 5.5646-1.8988 9.4667-1.8988 14.317 0 14.104 12.558 23.429 20.219 10.845 8.8804 29.033 21.66 25.763 29.896 38.448 11.146 34.269 42.744 33.677 71.513 0.73096 1.1981 6.508 15.289 6.508 22.946 0 3.9823-4.338 5.8212-4.338 9.8035 0 5.6641 4.338 8.4224 4.338 14.09 0 2.7551-4.3701 5.98-7.6047 7.3905 9.4174 4.4785 4.6868 13.049-3.6737 18.951-8.7867 7.4695-31.997-4.9009-42.799-22.104z" fill="#ffd5d5" stroke-miterlimit="3.864"/>
  <path d="m336.16 255.52c-5.2919 3.336-16.157 17.429-32.643 6.1221 0 0 23.502 5.869 25.463-11.659 0 0 6.1973-2.7688 7.1804 5.5375" fill="#ffd5d5"/>
  <path d="m345.38 264.75s7.5112 11.726-6.2622 13.401c-13.767 1.6751-30.447 4.4545-32.951-6.7004 0 0-26.688 5.0252-24.184-16.184 1.5888-13.463 7.913-10.051 19.177-8.3754 11.27 1.6751-2.4975-13.401 27.943-2.5106 0 0 26.293-0.8396 16.277 20.37z" fill="#ffd5d5" stroke="#231f20" stroke-miterlimit="3.864" stroke-width="3.9461"/>
  <path d="m442.41 206.75c-0.45028-0.10248-172.31-42.116-170.45-4.512 1.0022 20.311 20.751 25.971 20.751 25.971s34.783-6.8671 30.774 10.614l-2.8469 1.8014s-0.97318 5.1616-7.1756 11.434 2.7065-17.481-9.0201-17.481c-11.731 0-42.807 5.6607-54.531-2.1227-11.731-7.7832-31.781-17.272-17.745-34.255 14.031-16.982 35.078-25.264 71.572-28.803 36.492-3.5379 152.57 12.528 183.34 34.963 30.774 22.434-6.3184 49.7-24.76 34.963-3.089-2.4679-4.009-9.9059 0-15.358 4.0089-5.452 2.2756-12.049-19.909-17.214z" fill="#ffd5d5" stroke="#231f20" stroke-miterlimit="3.864" stroke-width="3.9461"/>
  <path d="m468.55 315.36-3.578-1.839c-5.4226-1.839-11.281-3.6746-11.281-7.9643 0-1.0699 1.7382-1.3775 1.7382-2.4508 0-4.1326-4.3432-5.9715-4.3432-10.108 0-4.4403 4.3432-6.4332 5.2097-10.72 2.387-9.9538 2.6048-17.768 11.281-20.215 1.6075-0.45462 7.156-1.5313 8.6764-1.2271 3.6894-7.8106 13.45-11.639 25.162-11.639 1.7381 0 1.9512 1.5314 3.4715 1.839 2.8227-5.0554 1.7382-10.415 9.5429-10.415 14.753 0 32.977 1.2237 35.582 11.027 32.105 3.0626 49.022 16.387 63.344 36.755l-1.7382 4.9017c3.9072 4.2863 6.0762 7.6566 6.0762 12.863 0 3.9823-3.4715 6.2792-7.8096 8.5797l1.7334 11.024c0 1.2271 0.86664 1.9928 0.86664 3.2166 0 11.947-14.966 18.072-31.239 21.288-13.233 2.6047-16.486 13.478-30.367 13.478-3.4715 0-5.4226-1.3775-6.9431-3.6746-4.1203 2.1432-6.0762 4.8983-11.281 4.8983-8.4583 0-11.93-4.8983-19.958-6.7372-12.366-2.9089-27.767-3.6746-27.767-12.866 0-2.4474 2.8227-3.2166 5.2049-4.8983-3.4666-0.91948-5.8537-1.2271-9.5429-1.2271 0 0-13.014-10.415 2.6048-13.478 15.62-3.0626-9.4367-9.1881-14.646-10.412zm143.07-36.76c11.281 17.768 32.105 39.823 46.856 29.406 3.9896-2.8166 10.415-8.8838 10.415-12.866 0-8.2686-16.491-6.2792-20.829-14.09m-21.691-1.2237c2.6-3.8283 6.9431-5.0554 6.9431-9.1881 0-7.1986-9.5477-9.9572-9.5477-17.152 0-8.1183 8.6764-12.1 8.6764-20.219 0-5.3598-9.3252-7.3492-16.917-7.3492-16.491 0-25.167 6.7372-41.652 6.7372-12.366 0-19.304-2.4508-31.67-2.4508-9.5477 0-15.188 2.1466-23.429 5.5135m52.061-7.3492c9.3252-5.9752 9.3252-13.174 19.958-17.768 15.62-6.8912 32.105-11.639 32.105-24.655v-13.174c0-17.918-33.844-19.754-59.222-19.754-8.0277 0-12.583-0.46147-20.606-0.61529 8.4583-0.45805 16.486-4.4403 16.486-10.412 0-4.4437-2.8179-6.7406-2.8179-11.181 0-2.7585 0-4.4403 0.21292-7.1986m-55.537 22.666c1.9511-17.611 34.71-20.37 34.71-37.98 0-4.748-2.1691-7.5066-2.6048-12.254h7.5966c18.764 0 25.761 11.187 30.564 19.167l0.44824-0.36087c4.1327-1.2804 4.3456-1.6528 8.2478-1.6528 14.317 0 14.104 12.558 23.429 20.219 10.845 8.8804 25.162 12.709 25.162 24.502 0 3.8317 0.37931 6.4332-0.92318 7.3526 41.219 9.1881 33.246 39.514 35.2 69.209 2.1714 7.9502 6.5092 15.635 6.5092 23.292 0 3.9823-4.338 5.8212-4.338 9.8035 0 5.6641 4.338 8.4224 4.338 14.09 0 2.7551-5.2185 4.91-8.2542 6.4414m-169.63-146.12c5.4226-0.91952 8.6764-1.5314 13.881-3.0626m137.97 61.26c1.5203 6.7372 8.4583 9.0344 15.62 13.474m-75.493-25.729c-4.5561-4.136-7.8096-7.5029-15.184-7.9643l-21.26 3.0626c-8.8942-0.91949-11.063-6.2792-19.091-8.5763-16.268-4.7477-30.372 2.1466-45.12-4.8983-18.442-8.8838-9.33-25.882-26.901-35.532-8.2454-4.4437-16.268-2.4508-26.901-2.4508-7.156 0-9.761 4.4403-14.753 7.9643-7.5918-6.7406-18.064-8.9865-30.367-7.3526-8.502 1.128-7.1608 7.9643-19.091 7.9643-23.865 0-21.26-7.3526-45.124-7.3526-10.845 0-17.571-4.7478-25.162 0.61526-5.4226 3.8283-5.6407 9.0344-13.014 10.412-35.795 6.8912-90.245 17.46-90.245 43.497 0 2.4508 1.7333 3.6746 1.7333 6.1255 0 7.9643-5.2049 10.415-5.2049 18.38 0 15.925 18.66 22.963 32.972 28.18 6.725 2.4508 9.9788 2.7551 17.358 3.0626m176.15-104.14c-0.21773 2.9089-0.86668 4.594-1.7333 7.3492m-25.167 9.8035v4.2863c1.0894 0.30765 2.1739 0.61187 3.4715 0.61187m-82.43-17.764v7.3526c2.1691-1.6852 3.6846-2.7585 6.0714-4.2897m-99.788 47.783c2.1691 2.7585 4.9868 4.9017 9.5429 4.9017 3.6894 0 5.8585-1.0733 8.6764-2.4508m195.24-12.251-5.2049-4.9017c4.338-9.1881 13.881-13.016 13.881-22.666m42.518 12.251c-2.1691 0.91949-3.4715 1.6852-5.2097 3.0626m14.753 34.92c7.8096-7.6566 15.837-9.8035 24.296-17.152m-6.9383 4.8983c5.6359-0.76226 8.8942-1.2237 14.748-0.61186m6.9431 25.117c6.9431-3.6746 12.148-7.5029 12.148-13.782 0-6.8912-4.338-10.569-4.338-17.46 0-2.9089 2.387-4.4403 2.6048-7.3526m-262.92 75.966h-8.4583c-18.873 0-28.416-7.3526-47.294-7.3526h-16.917c-14.317 0-16.486-11.485-29.723-15.314-16.05-4.5974-32.972-8.73-32.972-20.984v-2.9089m-7.8096 7.9643c2.8179-0.61184 4.7739-0.91949 7.8096-1.2271" fill="#ffd5d5" stroke="#000" stroke-miterlimit="3.864" stroke-width="3.9461"/>
  <path d="m119.64 237.57-5.2049-2.4508 5.1812 4.7353c4.6596 2.7006 10.53 6.4148 15.646 6.3528 7.1836-0.0872 11.162-0.49946 11.304 0.14578l0.68488 3.1167c14.249 6.7675 25.095 8.9106 42.883 8.9106h16.922c7.8096 0 10.632 5.5135 18.442 5.5135 1.5155 0 2.1691-1.0699 3.4667-1.2237m71.159 9.8173c-15.62 2.7585-25.162 1.839-41.211 1.839-9.1123 0-13.886-3.6746-22.998-3.6746-5.8537 0-8.8942 3.0626-14.753 3.0626-10.628 0-15.401-5.5135-26.029-5.5135-11.063 0-17.14 3.0626-28.203 3.0626-31.456 0-68.112-8.5763-68.112-30.784v-13.782c0-5.6674 5.8537-8.5763 12.148-11.793-1.5203-2.9089-2.6048-4.7477-2.6048-7.9643 0-14.702 10.415-21.596 18.224-35.532l3.4715-0.61187 2.6 2.4509c0.86668-1.0733 2.6048-1.6852 2.6048-3.0626 0-5.3598-2.6048-8.4223-2.6048-13.785 0-12.558 9.33-20.827 26.034-26.648l6.9383 1.2271c2.8227-14.09 18.873-18.534 35.577-26.344 13.668-6.4332 19.091-15.925 35.577-15.925 5.4274 0 8.8942 1.0699 13.886 2.4474 12.148-17.306 35.359-19.603 61.604-19.603 8.4631 0 16.055-0.45802 20.829 4.2897 5.2049-3.6746 8.8942-6.1255 16.05-6.1255 8.0277 0 12.584 1.8355 20.611 1.8355h18.655c8.8942 0 13.45-2.4474 22.344-2.4474 12.797 0 20.175 2.7551 31.67 6.7372l17.358-1.839c8.0277 0.76569 12.579 4.2897 16.486 9.1915 3.0357-1.2271 4.9868-2.4508 8.6764-2.4508 15.62 0 21.696 12.863 21.696 23.89 0 3.8283-1.0846 6.2792-3.4715 9.8035m29.5-18.992c-8.2406-4.2897-13.014-9.1881-23.429-9.1881-3.4715 0-5.4226 0.76569-8.6764 1.8356m-24.296-4.8983c1.3024 6.5835 0.86665 10.412 0.86665 16.999 0 6.2792-7.3737 8.5763-11.281 14.244-4.5561 6.4332-3.2536 12.097-10.41 17.152m-26.901-36.755c-6.2895 2.1432-8.6764 4.4403-13.014 7.9643 2.6 2.4508 4.5561 4.4403 6.0714 7.3492m-6.9431-7.9643c-8.4583 3.3703-14.535 4.9017-24.296 4.9017-12.797 0-23.86-4.7477-26.901-13.478m6.9431 17.768c-1.5154-1.5314-3.4715-2.6047-3.4715-4.594 0-2.1466 1.5203-3.3703 2.6049-5.2094m13.881-17.764c-0.86668-1.839-2.6-2.9089-2.6-4.9017 0-2.9089 3.6845-3.9823 6.0714-6.1255m-52.931 4.2863c0 9.3421-0.21772 14.705-0.21772 24.047 0 8.5763 7.8096 12.405 13.233 20.061m-96.231-30.572c-1.7333 2.1432-3.4715 3.5243-3.4715 6.1255 0 7.0449 10.415 9.4958 10.415 16.541 0 4.9017-6.9431 6.7406-6.9431 11.639 0 11.947 23.647 9.3454 35.577 17.768m-75.493-8.5763c1.7333 0 2.6-0.61187 4.338-0.61187 2.8178 0 4.1203 1.8356 6.0714 3.0626m-5.2049 26.34c-9.1123-15.775-48.881-14.158-50.838-31.311m-6.4282 36.825c13.014 0 18.219 6.4332 31.239 7.9643m-58.14-4.2897c3.0358 12.866 25.598 12.254 31.239 24.505m379.2 164.18c0.21291-1.3775 0.86664-2.297 0.86664-3.6746 0-1.5314-3.4715-1.5314-3.4715-3.0626 0-4.7478 6.9431-5.8212 12.148-8.5797m-9.5429 3.678c-1.5203-4.2897-6.0762-5.8212-7.8096-9.8035m32.972 17.152c-2.1691-3.2132-4.338-5.052-4.338-8.5763 0-2.4508 1.7333-3.6746 1.7333-6.1255 0-6.5869-10.192-8.2686-12.148-14.702m11.281 11.027c0.43577-1.9928 0.86668-3.0626 1.7382-4.9017m-1.7382 16.541c-2.3869-0.30762-4.338-0.61184-6.9431-0.61184m51.195-33.694c-8.8942-3.5243-13.014-7.9643-23.429-9.1915m15.619 5.5135c0-1.0699-1.7333-1.3775-1.7333-2.4474 0-2.7585 3.4715-3.9823 3.4715-6.7406m8.6764 29.406c-3.9073-5.6675-8.8942-10.415-17.788-10.415-3.6894 0-5.4226 2.4509-9.1123 2.4509-3.0357 0-3.2536-2.9123-6.0714-3.678m24.296 3.678c-4.992 1.2237-8.0277 3.2166-11.281 6.1255m-78.962 28.18c1.7333-6.2792 6.9431-9.0344 6.9431-15.314m31.239-91.281c-3.9073 3.8283-5.2097 7.3526-5.2097 12.251 0 5.2094-10.41 5.8212-10.41 11.027 0 3.5243 5.2049 5.0554 5.2049 8.5763 0 2.1466-1.7382 3.3703-1.7382 5.5135 0 1.0733 2.8227 0.46145 3.4715 1.2271m-5.2049-11.027c-1.7333 1.3775-3.0357 2.6012-4.338 4.2863m9.5429-14.09c2.1691 3.678 5.8585 4.9017 7.8096 8.5763m-4.338-17.152c-1.3024 0.15371-2.1691 0.61184-3.4715 0.61184-4.1203 0-6.2895-0.61184-10.41-0.61184m13.014 11.027c2.387 0.76569 4.338 1.3775 6.9431 1.839m20.824-17.152c-1.5203 7.5029-10.415 10.261-10.415 17.764 0 1.0733 1.5203 1.5314 1.7382 2.4509m0.86664-9.1881c-3.6893-0.30762-6.0762-1.5348-7.8096-3.678m39.915 4.9017c-8.6764 4.7477-7.156 11.793-17.353 15.317m8.6764-6.1289c0 3.0626 0.21772 5.0554 1.7333 7.9643m22.562 6.7406c-1.3024 0-1.9512-0.61529-3.2536-0.61529-3.0357 0-4.1203 1.839-7.1608 1.839-4.9868 0-7.156-2.4508-12.148-2.4508-7.5918 0-10.628 5.5135-18.219 5.5135-5.2049 0-7.8096-2.1432-13.019-1.839" fill="#ffd5d5" stroke="#231f20" stroke-miterlimit="3.864" stroke-width="3.9461"/>
  <path d="m406 270.66c6.7249 2.297 11.93 3.2166 16.486 7.3492l-0.86668 7.3526-1.7333 2.4508c-5.4274-5.2058-12.148-8.118-12.148-14.702 0-0.91949-1.7382-1.5314-1.7382-2.4508z" fill="#ffd5d5" stroke="#231f20" stroke-miterlimit="3.864" stroke-width="3.9461"/>
  <path d="m350.51 256.51s11.228-6.1255 13.833 1.2271c0.99739 2.8234 0.45998 7.2773 0.30513 11.967m54.659 41.788c-10.381-17.788-25.014-42.736-29.841-47.344-18.936-18.089-25.162-20.215-45.986-17.764m140.66 123.51s-10.907-12.569-14.378-26.658c-2.5538-12.365-2.161-16.223 9.1203-18.674 0 0 8.6764-4.2897-1.7382-4.2897-10.415 0-32.105 4.2897-41.648-7.3492-9.5477-11.639-28.639-44.72-33.844-49.623-5.2049-4.9017-16.486-23.278 3.4715-23.89 19.958-0.61527 19.958 3.0626 26.901-0.61527 6.9383-3.6746 6.0714-4.2863 11.281 0.61527 5.2049 4.8983 11.276-6.1289 5.2049-8.5763m6.9964 4.8983s5.1516 6.7406-2.6581 10.415c-7.8097 3.6746-6.0714-4.2897-12.148-3.0626-12.148 2.4508-22.562-3.6746-19.958 3.0626 2.6048 6.7372-0.86668 11.639-10.415 8.5763-9.5429-3.0626-11.281 2.4508-0.86664 4.9017 10.415 2.4508 6.0762-4.2897 20.824 0.61187 14.753 4.9017 2.6048 7.3526 10.415 15.314 7.8096 7.9643 11.281 13.478 4.338 20.219-6.9431 6.7372-7.8096 17.764 7.8096 19.603 15.62 1.8356 15.62 0 15.62 0l-3.4715-1.839c-5.4226-1.839-11.281-3.6746-11.281-7.9643 0-1.0699 1.7382-1.3775 1.7382-2.4508 0-4.1326-4.3428-5.9715-4.3428-10.107 0-4.4403 4.3428-6.4332 5.2097-10.72 2.387-9.9538 2.6048-17.768 11.281-20.215 1.6075-0.45462 7.156-1.5313 8.6764-1.2271 3.6894-7.8106 13.45-11.639 25.162-11.639 1.7382 0 1.9512 1.5314 3.4715 1.839 2.8227-5.0554 1.7382-10.415 9.5429-10.415 14.753 0 32.977 1.2237 35.582 11.027 32.105 3.0626 49.022 16.387 63.344 36.755l-1.7382 4.9017c3.9073 4.2863 6.0762 7.6566 6.0762 12.863 0 3.9823-3.4715 6.2792-7.8096 8.5797l1.7333 11.024c0 1.2271 0.86668 1.9928 0.86668 3.2166 0 11.947-14.966 18.072-31.239 21.288-13.233 2.6047-16.486 13.478-30.367 13.478-3.4715 0-5.4226-1.3775-6.9431-3.6746-4.1203 2.1432-6.0762 4.8983-11.281 4.8983-8.4583 0-11.93-4.8983-19.958-6.7372-12.366-2.9089-27.767-3.6746-27.767-12.866 0-2.4474 2.8227-3.2166 5.2049-4.8983-3.4666-0.91949-5.8536-1.2271-9.5429-1.2271-0.6488-6.5424-19.439-8.4362 13.252 31.693" fill="#ffd5d5" stroke="#231f20" stroke-miterlimit="3.864" stroke-width="3.9461"/>
  <path d="m606.13 145.79c-12.491-3.926-14.744-5.505-18.665-8.8699-3.9211-3.3649-9.0954-10.862-15.179-20.466" fill="#ffd5d5" stroke="#231f20" stroke-miterlimit="3.864" stroke-width="3.9461"/>
  <path d="m663.78 234.38c-3.9156-0.6581-8.0658 0.24319-11.616 1.8066-3.9359 1.155-5.7294 4.9459-4.931 13.674" fill="#ffd5d5" stroke="#231f20" stroke-miterlimit="3.864" stroke-width="3.9461"/>
  <rect transform="matrix(.73552 -.6775 -.68013 -.7331 0 0)" x="-547.31" y="-710.36" width="339.04" height="106.94" rx="45.597" ry="50.369" fill="#800080" stroke="#000" stroke-linecap="round" stroke-linejoin="bevel" stroke-width="14.92"/>
  <path d="m346.35 67.751c-21.765 21.764-31.058 16.111-30.91 41.383 0.74821 76.01 103.91 136.62 230.41 135.37 40.124-3.8984 110.61 18.726 92.048-31.979-21.473-12.264-37.821-22.491-50.224-22.559-118.27 1.1657-163.29-40.018-212.59-115.06 0 0-2.7646-3.8714-28.727-7.1592z" fill="#1a1a1a" fill-opacity=".31844"/>
  <path d="m347.96 36.6c-5.4108 0.41519-10.777 0.9462-16.105 1.5703-103.62 5.29-198.11 33.561-250.69 128.22-14.757 50.744-20.353 93.548-19.201 136.64-0.43035 5.6047-0.73834 11.282-0.89648 17.045-1.0157 37.012 4.0847 76.04 19.592 109.84 3.3464 14.551 7.0599 29.739 11.105 45.789 31.167 123.65 289.28 181.1 289.28 181.1s204.06-38.031 245.42-164.43c37.953-115.99 84.831-203.75 46.611-299.88-5.9 2.5331-3.9311 2.8757-10.233 5.0598-2.1216-6.3893-7.4818-11.634-10.023-17.746-27.125 8.4492-61.503 13.855-91.172 13.918-118.27 0-214.15-67.386-214.15-150.51 0.0877-2.2092 0.24466-4.4168 0.4707-6.6211z" fill="#f2f2e4" stroke="#000" stroke-width="5"/>
  <path transform="matrix(1.0552 .5081 -.5081 1.0552 171.3 672.62)" d="m-100.36-31.566h300v300h-300z" clip-path="url(#l)" color="#000000" color-rendering="auto" fill="#dbc895" filter="url(#j)" image-rendering="auto" opacity=".1" shape-rendering="auto" solid-color="#000000" style="isolation:auto;mix-blend-mode:normal"/>
  <path transform="matrix(1.1074 -.381 .381 1.1074 421.1 705.96)" d="m-100.36-31.566h300v300h-300z" clip-path="url(#m)" color="#000000" color-rendering="auto" fill="#dbc895" filter="url(#j)" image-rendering="auto" opacity=".07" shape-rendering="auto" solid-color="#000000" style="isolation:auto;mix-blend-mode:normal"/>
  <rect transform="matrix(1 .0023599 -.0019893 1 0 0)" x="401.12" y="928.94" width="152.91" height="247.05" rx="75.14" ry="67.986" fill="#8a7dc4" fill-rule="evenodd" stroke="#000" stroke-linecap="round" stroke-linejoin="round" stroke-width="9.3914"/>
  <rect transform="matrix(.9994 .03478 -.034379 .99941 0 0)" x="217.11" y="923.88" width="152.91" height="237.43" rx="75.14" ry="65.339" fill="#8a7dc4" fill-rule="evenodd" stroke="#000" stroke-linecap="round" stroke-linejoin="round" stroke-width="9.3914"/>
  <path d="m386.78 1166.5s1.581-76.129 71.895-80.265c94.586-5.5635 106.86 68.588 106.86 68.588 8.433 22.112-179.5 42.807-178.75 11.676z" fill="#333" stroke="#000" stroke-width="13.002"/>
  <path d="m343.07 1165.6s-0.75458-79.098-72.396-84.172c-96.373-6.8251-109.72 70.068-109.72 70.068-8.8458 22.876 182.53 46.449 182.11 14.104z" fill="#333" stroke="#000" stroke-width="13.64"/>
  <path transform="matrix(-2.3678 -1.1213 -1.2488 2.1262 -4.2998 461.52)" d="m-261.28-7.2691h300v300h-300z" clip-path="url(#k)" color="#000000" color-rendering="auto" fill="#dbc895" filter="url(#i)" image-rendering="auto" opacity=".1" shape-rendering="auto" solid-color="#000000" style="isolation:auto;mix-blend-mode:normal"/>
  <path id="p" d="m373.75 536.72c-0.65914 0-1.3201 0.0748-1.978 0.0748h-2.8636v0.17638c-44.134 2.968-85.02 35.51-112.42 76.594-58.728 87.477-81.127 202.69-83.103 313.24 1.5429 28.356-2.9653 62.395 6.7606 86.981 35.34 26.636 97.659 31.094 140.14 37.319 11.274 0.6196 29.18 0.7911 48.622 0.925v0.075c2.04 0 3.9809 0 5.9928-0.075h0.59086c19.442-0.134 37.348-0.3028 48.622-0.925 42.481-6.2246 104.8-10.683 140.14-37.319 9.7261-24.587 5.2176-58.626 6.7606-86.981-1.9761-110.58-24.37-225.81-83.097-313.27-27.4-41.056-68.289-73.618-112.42-76.607v-0.24622h-1.7418z" fill="#800080" fill-rule="evenodd" stroke="#000" stroke-linecap="round" stroke-linejoin="round" stroke-width="14.001"/>
  <path transform="matrix(1.1825 0 0 1.2042 305.25 703.5)" d="m-100.36-31.566h300v300h-300z" clip-path="url(#n)" color="#000000" color-rendering="auto" fill="#dbc895" filter="url(#j)" image-rendering="auto" opacity=".072" shape-rendering="auto" solid-color="#000000" style="isolation:auto;mix-blend-mode:normal"/>
  <path transform="matrix(-2.616 .1421 -.085087 2.4643 93.138 403.04)" d="m-261.28-7.2691h300v300h-300z" clip-path="url(#o)" color="#000000" color-rendering="auto" fill="#dbc895" filter="url(#i)" image-rendering="auto" opacity=".1" shape-rendering="auto" solid-color="#000000" style="isolation:auto;mix-blend-mode:normal"/>
  <rect transform="matrix(.73552 -.6775 -.68013 -.7331 0 0)" x="-349.79" y="-906.68" width="339.04" height="106.94" rx="45.597" ry="50.369" fill="#800080" stroke="#000" stroke-linecap="round" stroke-linejoin="bevel" stroke-width="14.92"/>
  <path transform="matrix(-2.3678 -1.1213 -1.2488 2.1262 284.6 463.54)" d="m-261.28-7.2691h300v300h-300z" clip-path="url(#k)" color="#000000" color-rendering="auto" fill="#dbc895" filter="url(#i)" image-rendering="auto" opacity=".1" shape-rendering="auto" solid-color="#000000" style="isolation:auto;mix-blend-mode:normal"/>
  <rect transform="matrix(.89012 .45574 -.41322 .91063 0 0)" x="601.57" y="590.75" width="101.92" height="78.751" rx="45.034" ry="38.145" fill="#b3b3b3" fill-rule="evenodd" stroke="#060000" stroke-linecap="round" stroke-linejoin="round" stroke-width="11.536"/>
  <rect transform="matrix(.89012 .45574 -.41322 .91063 0 0)" x="343.22" y="708.95" width="101.92" height="78.751" rx="45.034" ry="38.145" fill="#b3b3b3" fill-rule="evenodd" stroke="#060000" stroke-linecap="round" stroke-linejoin="round" stroke-width="11.536"/>
  <path d="m682.06 595.51-4e-3 -1.1e-4z" fill="#eeeee1"/>
  <ellipse cx="115.55" cy="257.31" rx="96.539" ry="90.982" fill="#b3b3b3" stroke="#000" stroke-linecap="round" stroke-linejoin="bevel" stroke-width="8.4291"/>
  <path d="m335.08 37.996c-104.88 4.8668-200.79 32.751-253.91 128.4-32.65 112.27-20.568 185.67 10.6 309.31 0.22338 0.88619 0.46052 1.769 0.70703 2.6484 7.9028-1.6894 25.675-0.88084 31.029-4.1816 7.3609-4.5376 30.847-23.591 34.641-18.541 3.7932 5.0496 45.852 36.874 41.736 44.029s-31.357 36.018-35.615 44.131c-2.1954 4.1823-11.921 6.2913-21.506 6.2656 84.488 72.498 238.28 106.75 238.28 106.75s204.06-38.031 245.42-164.43c37.953-115.99 84.831-203.75 46.611-299.88a223.24 129.3 0 0 1 -132.64 25.477 223.24 129.3 0 0 1 -223.24 -129.3 223.24 129.3 0 0 1 17.896 -50.68z" fill="#b3b3b3" stroke="#000" stroke-linecap="round" stroke-linejoin="bevel" stroke-width="10"/>
  <path d="m436.19 406.95c0-12.379-12.031-24.03-31.158-30.219-19.435-6.1895-43.189-6.1895-62.624 0-19.125 6.1895-31.156 17.84-31.156 30.219" fill="none" stroke="#000" stroke-linecap="round" stroke-linejoin="bevel" stroke-width="6.3676px"/>
  <g transform="matrix(.90714 -.42082 .37165 .92996 -4334.5 -465.17)">
   <rect transform="matrix(.79516 -.6064 .6064 .79516 0 0)" x="1465.2" y="4471.6" width="196.27" height="47.022"/>
   <rect transform="matrix(.6064 .79516 -.79516 .6064 0 0)" x="4399.4" y="-1588.3" width="186.17" height="44.604" fill="#1a1a1a"/>
  </g>
  <g transform="matrix(.99623 .086751 -.14076 .99153 -3111.1 -2641)">
   <rect transform="matrix(.79516 -.6064 .6064 .79516 0 0)" x="1465.2" y="4471.6" width="196.27" height="47.022"/>
   <rect transform="matrix(.6064 .79516 -.79516 .6064 0 0)" x="4399.4" y="-1588.3" width="186.17" height="44.604" fill="#1a1a1a"/>
  </g>
  <g transform="matrix(1.3696 0 0 .78313 -4775.3 -1751.8)">
   <ellipse cx="3743.8" cy="2907.4" rx="54.579" ry="49.24"/>
   <path transform="translate(253.14 1300.1)" d="m3490.7 1558a54.579 49.24 0 0 0 -35.93 12.281h71.877a54.579 49.24 0 0 0 -35.947 -12.281z" fill="#fff"/>
   <path transform="translate(253.14 1300.1)" d="m3460.6 1648.3a54.579 49.24 0 0 0 30.057 8.1758 54.579 49.24 0 0 0 30.02 -8.1758h-60.076z" fill="#fff"/>
  </g>
  <path d="m347.94 32.282c-104.88 4.8668-216.51 27.037-269.63 122.68-9.0314 31.055-14.634 59.134-17.363 86.127 1.7683 116.37-1.4776 240.14 6.582 358.62-14.224-39.693 55.142-354.19 79.525-389.19 77.192 14.336 160.86 12.766 242.44-27.554-45.119-24.401-67.922-69.961-68.028-105.71 0.0106-17.419 14.669-28.943 26.468-44.965z" fill="#3c3c3c" stroke="#000" stroke-width="3.6"/>
  <path d="m675.93 192.5c-12.845 5.4882-26.668 10.163-41.234 13.943 1.1919 3.6327 2.0924 7.421 2.6992 11.365l10.973 72.771 3.3175 311.01c1.9509-4.2639 35.237-304.28 37.015-308.63 3.6107-33.52 0.74659-66.47-12.77-100.46z" fill="#3c3c3c" stroke="#000" stroke-width="3.6"/>
 </g>
</svg>
