<?xml version="1.0" standalone="no"?>
<!DOCTYPE svg PUBLIC "-//W3C//DTD SVG 20010904//EN"
 "http://www.w3.org/TR/2001/REC-SVG-20010904/DTD/svg10.dtd">
<svg version="1.0" xmlns="http://www.w3.org/2000/svg"
 width="912.000000pt" height="1280.000000pt" viewBox="0 0 912.000000 1280.000000"
 preserveAspectRatio="xMidYMid meet">

<g transform="translate(0.000000,1280.000000) scale(0.100000,-0.100000)"
fill="#000000" stroke="none">
<path d="M3673 12782 c-145 -52 -286 -226 -328 -405 -21 -89 -19 -240 5 -357
26 -129 67 -247 157 -460 91 -213 173 -458 203 -602 17 -82 21 -133 18 -214
-3 -102 -4 -107 -31 -130 -98 -84 -200 47 -228 293 -40 355 -110 465 -285 451
-111 -9 -174 -86 -174 -214 0 -80 17 -121 109 -272 161 -261 157 -425 -12
-537 -197 -131 -353 -103 -656 119 -119 88 -200 129 -292 151 -159 36 -306 28
-478 -27 -53 -17 -100 -33 -105 -35 -4 -3 26 -26 68 -50 105 -62 187 -153 243
-268 49 -102 74 -208 91 -395 21 -217 84 -387 187 -498 30 -33 55 -63 55 -68
0 -4 -27 -84 -60 -177 -278 -776 -434 -1664 -430 -2442 l2 -250 -31 -55 c-33
-61 -61 -155 -61 -207 0 -69 -106 -229 -239 -362 -71 -71 -173 -154 -315 -254
-20 -14 -19 -15 8 -78 15 -35 48 -100 73 -143 l46 -80 -6 -90 c-12 -194 -56
-342 -174 -575 -72 -143 -83 -172 -83 -217 0 -106 47 -140 325 -232 259 -87
599 -171 790 -197 89 -11 85 -6 85 -100 0 -82 -1 -85 -28 -99 -40 -21 -99 -86
-117 -128 -24 -58 -20 -150 9 -207 93 -182 378 -232 717 -125 l78 25 113 -84
c226 -167 262 -244 261 -547 0 -275 -51 -708 -125 -1065 -54 -262 -119 -415
-220 -511 -120 -115 -266 -193 -588 -313 -304 -114 -427 -187 -486 -286 -73
-125 -17 -241 136 -281 57 -15 123 -17 520 -17 474 0 718 11 980 43 309 39
429 89 485 204 25 50 27 63 22 138 -2 46 -18 175 -35 288 -74 486 -102 1247
-62 1685 13 138 36 324 41 330 2 2 40 -6 84 -17 68 -18 113 -21 290 -22 116
-1 224 2 241 6 l31 7 6 -57 c4 -31 12 -200 18 -374 13 -343 3 -784 -26 -1128
-20 -249 -40 -345 -122 -595 -73 -223 -70 -318 14 -382 78 -60 257 -101 567
-130 145 -13 295 -17 751 -17 523 -1 574 0 620 17 178 63 182 244 10 375 -79
59 -175 103 -454 209 -279 105 -417 185 -481 278 -47 69 -117 257 -145 395
-41 198 -71 746 -63 1175 5 287 8 294 125 415 l83 87 172 6 c95 4 216 14 268
23 111 18 297 77 343 108 32 21 32 23 38 121 8 130 39 246 98 371 l48 101 69
6 c106 10 110 10 123 -20 23 -50 85 -124 130 -153 76 -51 175 -49 240 6 l29
24 29 -26 c80 -75 189 -73 280 7 l32 28 55 -20 c31 -10 72 -19 93 -19 82 1
170 52 223 128 19 26 35 49 36 51 2 1 31 -7 66 -20 43 -15 86 -22 138 -23 107
0 180 34 264 126 l64 68 63 0 c80 0 634 29 674 36 29 4 33 11 87 155 l56 151
-231 152 c-128 83 -303 196 -389 249 -86 54 -165 105 -176 115 -19 17 -18 22
49 397 83 465 225 1382 216 1392 -13 12 -812 8 -967 -5 -209 -18 -393 -39
-569 -67 -85 -14 -155 -23 -156 -22 0 1 -29 117 -64 257 -155 626 -347 1200
-596 1786 -115 268 -302 659 -406 844 l-65 115 67 66 c75 73 125 167 153 281
9 37 25 160 36 275 11 114 28 243 39 286 28 107 86 227 159 325 34 45 62 84
62 86 0 2 -37 9 -82 16 -111 16 -240 14 -311 -5 -170 -45 -349 -189 -486 -394
-106 -157 -146 -191 -225 -191 -48 0 -82 15 -102 44 -40 63 -33 255 17 455 40
163 82 276 173 475 41 89 86 202 100 251 83 293 39 515 -118 598 -58 30 -172
29 -238 -2 -96 -46 -163 -148 -192 -293 -21 -100 -21 -349 -1 -563 19 -207 19
-342 -1 -446 -29 -153 -87 -239 -163 -239 -20 0 -46 7 -57 15 -77 53 -87 272
-29 615 36 206 33 345 -9 435 -46 102 -101 145 -182 145 -68 0 -122 -35 -160
-102 -29 -52 -29 -55 -28 -203 0 -135 5 -170 42 -350 75 -365 78 -441 17 -502
-42 -42 -89 -45 -134 -7 -37 31 -47 65 -61 218 -21 237 -67 419 -161 642 -83
199 -102 287 -97 439 6 143 30 226 109 365 106 187 117 327 33 437 -54 71
-166 99 -261 65z m168 -131 c39 -40 37 -57 -8 -66 -155 -29 -262 -201 -263
-420 0 -157 68 -458 165 -725 99 -273 136 -427 137 -571 1 -94 -3 -127 -22
-183 -12 -37 -24 -66 -26 -63 -2 2 1 30 7 63 19 99 -6 326 -56 524 -35 138
-73 243 -157 440 -93 216 -134 338 -153 455 -19 112 -18 152 0 240 20 94 56
165 121 235 95 102 196 130 255 71z m1339 -686 c0 -2 -18 -30 -40 -61 -61 -88
-92 -206 -119 -464 -33 -302 -102 -722 -117 -707 -2 2 4 39 13 83 14 65 17
146 18 454 1 297 4 392 17 455 21 106 52 178 95 215 28 25 42 30 83 30 28 0
50 -2 50 -5z m-776 -318 c16 -12 15 -16 -11 -72 -39 -85 -43 -245 -14 -485 35
-281 29 -434 -19 -492 -19 -22 -19 -21 1 26 19 44 21 62 16 160 -3 61 -19 194
-36 296 -35 213 -53 380 -47 424 3 17 8 47 11 67 7 44 39 89 64 89 9 0 25 -6
35 -13z m-1206 -398 c-16 -47 -5 -88 71 -252 91 -197 121 -291 128 -397 6 -98
-3 -142 -48 -218 -39 -68 -47 -63 -12 6 38 77 43 177 13 274 -28 95 -66 165
-156 291 -86 119 -111 184 -95 245 14 51 46 79 93 81 15 1 15 -3 6 -30z m1819
-166 c-2 -37 -3 -9 -3 62 0 72 1 102 3 68 2 -34 2 -93 0 -130z m0 -115 c-3 -7
-5 -2 -5 12 0 14 2 19 5 13 2 -7 2 -19 0 -25z m-50 -170 c-3 -8 -6 -5 -6 6 -1
11 2 17 5 13 3 -3 4 -12 1 -19z m1013 -77 c0 -5 -24 -21 -52 -36 -111 -58
-187 -128 -279 -256 -80 -113 -144 -179 -216 -226 -80 -51 -195 -76 -248 -53
-15 7 -9 9 25 9 51 1 129 34 178 76 19 16 73 81 122 144 91 121 173 206 250
258 76 51 100 61 218 92 1 1 2 -3 2 -8z m-1643 -393 c-1 -46 -3 -9 -3 82 0 91
2 128 3 83 2 -46 2 -120 0 -165z m-50 -20 c-1 -40 -3 -8 -3 72 0 80 2 112 3
73 2 -40 2 -106 0 -145z m-160 -60 c-1 -46 -3 -9 -3 82 0 91 2 128 3 83 2 -46
2 -120 0 -165z m112 107 c1 -88 -2 -135 -9 -135 -6 0 -10 48 -10 135 0 74 4
135 9 135 5 0 10 -61 10 -135z m-62 -87 c-1 -40 -3 -8 -3 72 0 80 2 112 3 73
2 -40 2 -106 0 -145z m420 -135 c-1 -65 -3 -12 -3 117 0 129 2 182 3 118 2
-65 2 -171 0 -235z m110 -416 c-1 -139 -2 -22 -2 258 0 281 1 394 2 252 2
-142 2 -372 0 -510z m-2745 696 c102 -108 155 -236 183 -437 30 -213 86 -364
177 -470 40 -47 43 -48 85 -43 54 6 84 32 115 100 20 45 23 68 23 172 0 208
-39 288 -187 386 -51 33 -106 73 -122 87 -30 28 -116 141 -116 153 0 4 33 -26
73 -65 55 -55 96 -84 177 -126 224 -116 311 -261 297 -496 -6 -107 -32 -202
-94 -339 -200 -443 -360 -990 -427 -1460 -63 -442 -67 -864 -11 -1250 20 -134
65 -338 78 -350 7 -7 8 -5 5 5 -3 8 -16 60 -28 114 l-23 99 34 28 c80 65 199
47 268 -40 l33 -41 -1 -147 c-1 -85 -6 -150 -12 -153 -5 -4 2 -12 15 -18 24
-11 25 -10 32 34 6 41 -1 162 -12 203 -2 9 2 3 10 -14 19 -38 22 -245 5 -245
-19 0 -386 192 -476 248 -162 102 -161 101 -169 162 -13 85 -9 718 5 875 58
676 199 1271 426 1799 l37 86 -17 45 c-10 24 -25 47 -35 50 -34 11 -111 106
-145 178 -48 101 -64 168 -81 347 -24 247 -70 403 -154 524 -22 31 -36 56 -31
56 4 0 33 -26 63 -57z m1955 -320 c-1 -65 -3 -14 -3 112 0 127 2 180 3 118 2
-62 2 -165 0 -230z m-43 -513 c3 0 11 3 20 6 14 5 16 28 16 152 0 80 3 143 6
139 3 -3 5 -67 5 -143 -2 -128 -1 -136 16 -129 46 18 205 45 271 45 l72 0 2
98 2 97 5 -99 6 -100 76 -12 c75 -13 135 -31 128 -38 -2 -3 -24 0 -49 4 -25 5
-96 9 -157 10 l-113 0 -1 -32 c-2 -31 -2 -31 -6 -5 -4 22 -9 27 -31 27 -32 -1
-122 -20 -209 -45 -58 -16 -63 -20 -63 -46 0 -16 -4 -29 -9 -29 -4 0 -6 11 -3
25 5 27 3 28 -22 19 -10 -4 -16 -18 -16 -35 0 -16 -5 -29 -11 -29 -7 0 -9 10
-6 26 3 19 1 24 -10 20 -8 -3 -19 -6 -25 -6 -6 0 -8 -13 -6 -30 3 -16 -1 -31
-7 -34 -7 -2 -10 6 -7 26 4 28 3 29 -17 19 -14 -8 -21 -22 -22 -44 -2 -30 -2
-31 -6 -4 -2 15 -9 25 -14 22 -5 -4 -9 -2 -9 4 0 5 5 13 10 16 6 4 11 149 12
393 l3 387 2 -383 c3 -378 3 -382 23 -372 19 10 20 23 22 408 l3 397 2 -393
c3 -388 3 -392 23 -382 19 10 20 22 20 410 0 261 4 401 10 405 7 4 10 -123 8
-393 l-3 -399 23 10 22 10 2 411 3 411 2 -407 c2 -225 5 -408 7 -408z m1143
-57 c-1 -126 -2 -23 -2 227 0 250 1 353 2 228 2 -126 2 -330 0 -455z m-590
634 c13 -13 10 -15 -24 -21 -21 -4 -81 -28 -133 -53 -77 -37 -109 -59 -169
-120 -61 -63 -77 -74 -97 -69 -34 9 -31 47 7 91 l32 36 25 -23 c23 -21 25 -21
17 -3 -18 48 -16 51 37 87 68 45 91 57 153 80 57 21 129 19 152 -5z m-948
-917 c-47 -47 -105 -111 -128 -142 -24 -32 -46 -58 -49 -58 -3 0 -1 5 6 12 17
17 15 38 -3 38 -12 0 -15 -9 -14 -37 2 -26 -5 -51 -23 -79 -79 -124 -166 -348
-192 -491 -9 -53 9 -38 23 20 58 230 260 556 432 696 30 25 48 38 42 31 -7 -8
-13 -24 -13 -36 0 -13 -4 -26 -10 -29 -5 -3 -10 1 -10 9 0 9 -4 16 -9 16 -16
0 -33 -28 -29 -49 3 -18 11 -14 72 35 39 31 94 70 124 86 48 28 53 34 50 61
-2 17 2 32 8 34 7 2 9 -8 6 -27 -4 -31 3 -36 28 -20 9 6 14 21 12 40 -2 17 1
30 7 30 6 0 11 -11 11 -25 0 -27 6 -30 29 -16 8 5 12 19 9 35 -3 14 -1 26 3
26 5 0 9 -12 9 -26 0 -40 33 -27 41 16 l6 35 2 -34 c1 -22 5 -32 14 -28 40 15
57 17 57 8 0 -5 -16 -15 -35 -21 l-35 -12 -2 -66 -2 -67 -3 63 c-4 58 -5 62
-23 52 -16 -9 -20 -23 -22 -73 l-2 -62 -3 58 c-2 31 -6 57 -9 57 -3 0 -26 -12
-50 -26 l-45 -27 2 -55 c2 -31 -1 -57 -7 -59 -5 -2 -8 19 -6 47 2 27 1 50 -4
50 -13 0 -117 -82 -181 -144 -53 -50 -63 -64 -63 -93 0 -20 4 -32 10 -28 22
14 7 -8 -50 -71 -152 -167 -260 -384 -311 -619 -77 -361 -30 -718 137 -1046
l55 -107 -1 -646 c0 -641 0 -646 20 -646 20 0 20 5 20 613 0 538 -2 615 -16
635 -8 12 -13 22 -10 22 3 0 19 -20 35 -44 17 -25 37 -51 43 -58 7 -8 22 -25
33 -38 16 -19 16 -22 2 -11 -17 13 -17 -13 -15 -568 3 -575 3 -581 -17 -580
-11 0 -14 3 -7 6 9 4 12 130 12 586 0 563 -1 583 -20 607 -20 25 -20 23 -17
-583 l2 -608 -35 6 c-19 4 -36 8 -38 10 -1 1 -3 294 -3 651 0 622 -1 650 -19
684 -19 35 -19 32 -20 -624 0 -363 -2 -657 -5 -654 -3 3 -5 303 -5 668 l0 663
-39 86 c-21 47 -41 93 -44 101 -3 8 -5 -299 -4 -683 1 -470 -1 -693 -8 -682
-5 10 -21 34 -33 53 -39 59 -44 82 -42 200 1 78 -3 112 -10 112 -8 0 -11 -29
-8 -98 2 -73 0 -96 -8 -87 -6 6 -15 22 -19 35 -4 14 -15 41 -25 60 -123 242
-251 734 -291 1120 -18 164 -18 636 -1 815 27 276 113 680 177 830 7 17 16 41
20 55 10 33 61 153 90 210 12 25 26 56 30 70 4 13 13 29 19 35 8 9 10 -100 9
-414 -1 -254 2 -418 7 -406 5 11 9 210 9 442 0 387 2 425 18 455 18 32 18 25
23 -356 4 -323 7 -385 18 -363 9 21 12 124 12 404 0 349 -1 374 -17 362 -15
-13 -15 -12 -5 6 37 68 37 65 34 -187 -1 -134 -1 -306 0 -383 l3 -140 43 76
c46 84 53 132 26 175 -21 32 -21 92 0 135 14 28 16 68 16 277 -1 134 1 247 4
250 3 3 6 -104 6 -238 l0 -243 20 18 c20 18 21 29 20 264 -1 293 -2 271 8 271
4 0 6 -113 4 -251 l-3 -250 21 11 c20 11 21 18 20 278 -1 147 0 272 0 277 1 6
1 32 0 59 -1 35 2 46 10 41 8 -5 10 -20 7 -41 -3 -19 -3 -34 1 -34 4 0 6 -126
4 -280 -1 -154 -1 -280 2 -280 2 0 12 3 20 6 15 6 16 39 16 301 -1 162 1 298
4 301 3 3 6 -130 6 -296 0 -166 2 -302 4 -302 2 0 11 -3 20 -6 14 -6 16 28 18
332 l3 339 2 -339 c3 -320 4 -340 23 -363 l20 -26 0 385 c0 212 3 388 8 392 4
4 9 -169 12 -386 l5 -393 -86 -85z m-142 667 c-2 -23 -3 -1 -3 48 0 50 1 68 3
42 2 -26 2 -67 0 -90z m67 124 c4 -5 -3 -7 -14 -4 -23 6 -26 13 -6 13 8 0 17
-4 20 -9z m1123 -63 c-3 -7 -5 -2 -5 12 0 14 2 19 5 13 2 -7 2 -19 0 -25z m70
-350 c-1 -62 -3 -12 -3 112 0 124 2 174 3 113 2 -62 2 -164 0 -225z m-1350
290 c-3 -8 -6 -5 -6 6 -1 11 2 17 5 13 3 -3 4 -12 1 -19z m850 -14 c-3 -3 -12
-4 -19 -1 -8 3 -5 6 6 6 11 1 17 -2 13 -5z m240 -196 c-2 -29 -3 -6 -3 52 0
58 1 81 3 53 2 -29 2 -77 0 -105z m-98 52 c-1 -49 -6 -90 -10 -90 -5 0 -9 41
-9 90 0 56 4 90 11 90 6 0 9 -33 8 -90z m-62 -53 c-2 -23 -3 -1 -3 48 0 50 1
68 3 42 2 -26 2 -67 0 -90z m-50 1 c-2 -24 -4 -5 -4 42 0 47 2 66 4 43 2 -24
2 -62 0 -85z m1005 -210 c2 -64 0 -114 -4 -111 -5 2 -7 82 -6 176 2 173 6 151
10 -65z m45 -55 c-1 -54 -3 -10 -3 97 0 107 2 151 3 98 2 -54 2 -142 0 -195z
m-92 132 c0 -74 -1 -135 -3 -135 -19 0 -35 231 -17 260 16 26 20 1 20 -125z
m255 11 c0 -12 -5 -7 -19 24 -11 24 -11 24 3 6 9 -11 16 -24 16 -30z m-1102
-1 c1 -14 -3 -25 -8 -25 -6 0 -10 11 -10 25 0 14 4 25 8 25 4 0 9 -11 10 -25z
m49 -12 c-3 -10 -5 -4 -5 12 0 17 2 24 5 18 2 -7 2 -21 0 -30z m50 0 c-3 -10
-5 -4 -5 12 0 17 2 24 5 18 2 -7 2 -21 0 -30z m-210 -10 c-3 -10 -5 -4 -5 12
0 17 2 24 5 18 2 -7 2 -21 0 -30z m-210 -45 c-3 -7 -5 -2 -5 12 0 14 2 19 5
13 2 -7 2 -19 0 -25z m370 -185 c-2 -32 -3 -8 -3 52 0 61 1 87 3 58 2 -29 2
-78 0 -110z m50 0 c-2 -32 -3 -8 -3 52 0 61 1 87 3 58 2 -29 2 -78 0 -110z
m-160 -5 c-2 -29 -3 -6 -3 52 0 58 1 81 3 53 2 -29 2 -77 0 -105z m63 52 c0
-60 -4 -100 -10 -100 -6 0 -10 40 -10 100 0 60 4 100 10 100 6 0 10 -40 10
-100z m-113 -62 c-2 -29 -3 -6 -3 52 0 58 1 81 3 53 2 -29 2 -77 0 -105z m470
-35 c-2 -32 -3 -8 -3 52 0 61 1 87 3 58 2 -29 2 -78 0 -110z m-937 112 c0 -2
-10 -9 -22 -15 -22 -11 -22 -10 -4 4 21 17 26 19 26 11z m1047 -152 c-2 -32
-3 -8 -3 52 0 61 1 87 3 58 2 -29 2 -78 0 -110z m-1097 123 c0 -2 -8 -10 -17
-17 -16 -13 -17 -12 -4 4 13 16 21 21 21 13z m112 -28 c-7 -7 -12 -21 -13 -32
0 -21 0 -21 -9 -1 -5 14 -3 24 8 33 20 15 30 16 14 0z m-102 -62 c0 -2 -8 -10
-17 -17 -16 -13 -17 -12 -4 4 13 16 21 21 21 13z m195 -98 c-18 -14 -21 -9
-17 35 5 66 15 77 21 22 4 -29 2 -53 -4 -57z m-104 -16 c3 -35 0 -46 -16 -54
-17 -9 -18 -8 -7 3 6 7 12 33 12 58 0 55 7 51 11 -7z m1308 -60 l-2 -99 99
-99 c264 -264 386 -528 425 -919 19 -187 -9 -399 -78 -581 -22 -60 -56 -105
-68 -92 -2 2 10 44 27 93 96 293 91 658 -11 965 -76 227 -185 405 -350 570
-58 58 -96 97 -85 88 12 -10 24 -18 27 -18 4 0 7 43 7 95 0 52 3 95 6 95 3 0
4 -44 3 -98z m-509 -22 c347 -98 645 -400 775 -785 109 -324 96 -720 -36
-1013 -28 -63 -37 -74 -102 -118 -164 -113 -396 -325 -491 -451 -52 -69 -88
-78 -306 -78 -142 0 -176 3 -245 23 -407 117 -721 481 -827 960 -30 132 -32
433 -5 562 81 386 295 689 592 837 69 35 135 58 226 78 94 22 320 13 419 -15z
m-1897 -172 l-3 -193 20 24 c18 21 20 38 20 175 0 108 -4 156 -12 165 -11 10
-10 11 3 6 8 -3 23 -20 33 -38 13 -23 13 -27 2 -13 -15 18 -16 10 -16 -110 0
-87 3 -124 10 -114 14 22 12 8 -4 -31 -20 -47 -90 -109 -123 -109 -6 0 -8 364
-3 428 0 1 17 2 38 2 l37 0 -2 -192z m-101 160 c-9 -9 -12 -69 -12 -210 l0
-199 -30 16 c-67 34 -90 129 -58 235 23 74 60 145 86 159 23 14 28 13 14 -1z
m1064 -37 c25 20 15 4 -14 -24 l-28 -27 4 38 c5 55 15 73 20 34 3 -28 6 -31
18 -21z m54 34 c-7 -8 -17 -15 -23 -15 -6 0 -2 7 9 15 25 19 30 19 14 0z
m-922 -135 c0 -19 -3 -44 -8 -55 -6 -13 -8 7 -8 60 0 55 3 72 8 55 4 -14 8
-41 8 -60z m2839 -57 c-2 -16 -4 -3 -4 27 0 30 2 43 4 28 2 -16 2 -40 0 -55z
m-47 -4 c0 -6 -4 -7 -10 -4 -5 3 -10 11 -10 16 0 6 5 7 10 4 6 -3 10 -11 10
-16z m357 -296 c-2 -38 -3 -7 -3 67 0 74 1 105 3 68 2 -38 2 -98 0 -135z m-50
40 c-2 -21 -4 -4 -4 37 0 41 2 58 4 38 2 -21 2 -55 0 -75z m50 -145 c-3 -8 -6
-5 -6 6 -1 11 2 17 5 13 3 -3 4 -12 1 -19z m-3506 -29 c26 -50 -28 -131 -66
-99 -17 14 -20 72 -5 101 14 26 56 25 71 -2z m90 -482 c99 -66 135 -226 85
-369 -70 -199 -228 -238 -322 -81 -27 45 -29 54 -29 163 0 109 2 118 32 175
63 122 155 166 234 112z m3836 -134 c-2 -16 -4 -3 -4 27 0 30 2 43 4 28 2 -16
2 -40 0 -55z m-537 -454 l-62 -51 51 -18 c90 -30 131 -85 131 -172 l-1 -53
-13 31 c-18 41 -72 102 -107 120 -38 19 -116 17 -164 -5 -22 -10 -76 -47 -120
-83 -205 -166 -629 -465 -795 -562 l-65 -37 0 -387 0 -387 -2 383 c-2 210 -6
382 -10 382 -3 0 -15 -7 -25 -17 -10 -9 -18 -13 -18 -10 0 7 151 138 355 308
218 182 431 340 620 459 75 47 265 149 278 150 4 0 -20 -23 -53 -51z m-3153
-334 c31 -22 47 -85 33 -134 -18 -67 -59 -84 -101 -42 -24 24 -29 38 -29 76 0
90 45 136 97 100z m3169 -106 c-9 -149 -46 -337 -97 -486 -41 -119 -43 -123
-78 -134 -148 -47 -312 -158 -404 -274 -66 -84 -25 20 44 111 64 84 167 148
293 184 l59 16 47 190 c63 252 132 504 138 504 3 0 2 -50 -2 -111z m-2229 -30
l38 -40 -5 -530 c-3 -348 -2 -530 5 -533 6 -3 -3 -4 -20 -4 -16 0 -24 2 -17 5
9 4 12 122 12 542 0 527 0 538 -20 556 l-20 18 2 -556 c2 -367 0 -557 -7 -557
-7 0 -10 197 -10 570 0 314 1 570 2 570 1 0 19 -18 40 -41z m3013 24 c-62 -6
-79 -13 -117 -45 -24 -21 -31 -24 -18 -9 35 41 77 61 125 59 39 -1 40 -2 10
-5z m-3 -320 c-1 -59 -3 -13 -3 102 0 116 2 164 3 108 2 -56 2 -151 0 -210z
m113 101 c0 -177 1 -184 20 -184 19 0 20 7 20 162 0 138 -3 164 -17 182 -15
19 -15 19 7 -1 23 -22 23 -25 21 -177 -2 -145 -1 -156 16 -157 10 -1 -7 -7
-37 -15 -30 -7 -59 -12 -65 -10 -5 3 -2 5 8 5 17 1 18 14 15 195 -2 107 0 192
5 189 4 -2 7 -87 7 -189z m-1075 40 c-23 -131 -24 -134 -40 -134 -8 0 -15 5
-15 10 0 6 -5 10 -10 10 -7 0 -7 -6 0 -20 9 -17 5 -24 -32 -51 -48 -36 -184
-102 -239 -117 -31 -8 -40 -7 -64 12 l-27 22 27 18 c25 17 28 17 46 0 20 -18
27 -6 7 14 -6 6 -10 13 -7 15 2 2 31 22 64 44 74 50 221 178 266 232 19 22 35
38 37 36 2 -1 -4 -43 -13 -91z m806 73 c-10 -9 -11 -8 -5 6 3 10 9 15 12 12 3
-3 0 -11 -7 -18z m-2751 -12 c13 -14 21 -25 18 -25 -2 0 -15 11 -28 25 -13 14
-21 25 -18 25 2 0 15 -11 28 -25z m1387 -268 c-1 -45 -3 -5 -3 88 0 94 2 130
3 82 2 -48 2 -125 0 -170z m1700 221 c-3 -8 -6 -5 -6 6 -1 11 2 17 5 13 3 -3
4 -12 1 -19z m-360 -10 c-3 -8 -6 -5 -6 6 -1 11 2 17 5 13 3 -3 4 -12 1 -19z
m-2647 -494 c0 -268 -3 -490 -5 -493 -3 -2 -5 220 -5 494 0 274 2 496 5 493 3
-3 5 -225 5 -494z m52 -18 l-2 -476 -23 1 c-17 1 -18 2 -4 6 16 4 17 35 17
472 0 360 -3 470 -12 480 -11 11 -9 12 7 3 20 -10 20 -19 17 -486z m2585 402
c-2 -18 -4 -6 -4 27 0 33 2 48 4 33 2 -15 2 -42 0 -60z m390 50 c-3 -8 -6 -5
-6 6 -1 11 2 17 5 13 3 -3 4 -12 1 -19z m-2917 -471 c4 -366 2 -467 -7 -467
-10 0 -13 106 -15 470 -2 310 0 469 7 467 6 -2 12 -173 15 -470z m2927 431
c-3 -8 -6 -5 -6 6 -1 11 2 17 5 13 3 -3 4 -12 1 -19z m-2876 -1 c-1 -4 -1
-207 -1 -452 0 -417 -1 -445 -17 -445 -13 0 -15 3 -5 8 10 7 12 102 10 455 -2
246 1 446 5 444 5 -1 8 -6 8 -10z m62 -899 c8 -5 7 -8 -5 -8 -17 0 -18 27 -16
448 l3 447 2 -439 c3 -337 6 -442 16 -448z m2835 822 c0 -9 -3 -7 -8 5 -5 11
-8 29 -8 40 0 16 2 15 8 -5 4 -14 8 -32 8 -40z m-2061 -167 c-2 -37 -3 -9 -3
62 0 72 1 102 3 68 2 -34 2 -93 0 -130z m-580 -465 c-1 -117 -2 -22 -2 212 0
234 1 329 2 213 2 -117 2 -309 0 -425z m51 205 c-1 -230 -4 -353 -5 -273 -7
368 -7 690 0 690 4 0 6 -188 5 -417z m62 -3 c0 -272 -3 -410 -10 -410 -7 0
-10 138 -10 410 0 255 4 410 10 410 6 0 9 -156 10 -410z m47 -207 c-1 -115 -2
-21 -2 207 0 228 1 322 2 208 2 -115 2 -301 0 -415z m50 4 c-1 -111 -2 -17 -2
208 0 226 1 316 2 202 2 -115 2 -299 0 -410z m2443 603 c0 -5 -10 -10 -22 -9
-22 0 -22 1 -3 9 11 5 21 9 23 9 1 1 2 -3 2 -9z m1665 -12 c3 -3 -23 -192 -59
-419 -69 -438 -80 -515 -121 -834 -14 -110 -32 -246 -40 -303 -8 -56 -15 -105
-15 -107 0 -3 -22 -5 -50 -5 -27 0 -50 3 -50 8 0 4 52 356 114 782 82 561 111
777 102 782 -21 14 -614 8 -791 -7 -512 -44 -972 -136 -1480 -295 -258 -81
-361 -122 -357 -141 2 -8 109 -289 238 -625 128 -336 234 -614 234 -617 0 -4
-19 -7 -43 -7 l-42 0 -248 638 c-136 350 -250 646 -253 658 -5 19 6 26 88 62
533 233 1226 386 1948 431 156 10 815 9 825 -1z m-1852 -35 c-7 -2 -19 -2 -25
0 -7 3 -2 5 12 5 14 0 19 -2 13 -5z m-46 -9 c-3 -3 -12 -4 -19 -1 -8 3 -5 6 6
6 11 1 17 -2 13 -5z m-111 -21 l39 6 -40 -13 c-40 -13 -55 -8 -55 19 0 6 4 4
9 -4 6 -9 20 -12 47 -8z m71 11 c-3 -3 -12 -4 -19 -1 -8 3 -5 6 6 6 11 1 17
-2 13 -5z m-1490 -496 c-1 -79 -3 -17 -3 137 0 154 2 218 3 143 2 -75 2 -201
0 -280z m3263 408 c0 -2 -9 -64 -20 -138 -11 -73 -51 -351 -90 -618 -98 -674
-111 -765 -114 -768 -2 -2 -1179 -75 -1726 -107 l-105 -7 -37 99 c-20 54 -125
327 -232 607 -108 280 -196 512 -196 516 0 20 507 179 760 239 359 85 751 147
1070 170 118 8 690 14 690 7z m-6090 -422 c505 -414 1085 -711 1792 -919 l148
-43 4 32 c3 17 8 54 11 81 9 74 44 212 72 283 l25 63 35 -53 c19 -28 48 -69
65 -91 l31 -39 -12 -181 c-11 -154 -17 -196 -42 -272 -62 -184 -144 -329 -236
-417 l-50 -46 -17 -104 c-9 -58 -20 -114 -23 -126 -5 -21 -2 -22 48 -22 30 0
81 4 113 10 33 5 61 9 62 7 1 -1 -5 -33 -14 -71 l-17 -69 30 -21 c69 -50 228
-182 325 -270 58 -53 107 -96 110 -96 3 0 21 24 40 52 19 29 89 119 155 201
66 82 128 159 137 172 17 22 16 27 -33 156 -99 264 -237 709 -320 1035 l-23
91 31 49 c17 27 39 66 49 87 10 20 21 37 25 37 13 0 128 -154 178 -239 28 -47
55 -92 60 -100 7 -11 31 -2 118 49 224 131 483 311 557 389 17 17 33 31 37 31
6 0 342 -830 351 -867 2 -7 -72 -81 -163 -165 -463 -429 -574 -534 -577 -546
-2 -8 11 -54 29 -104 l32 -89 458 3 c253 2 459 1 459 -2 0 -2 -18 -38 -39 -80
-21 -41 -51 -111 -67 -155 -39 -114 -101 -173 -229 -217 -27 -10 -41 -17 -30
-18 32 0 117 25 163 49 24 12 45 21 46 19 1 -2 1 -25 -2 -51 -4 -47 -5 -48
-64 -78 -76 -38 -239 -93 -348 -116 -72 -15 -134 -18 -400 -18 -361 0 -501 13
-888 81 -276 48 -460 88 -882 193 -424 106 -505 122 -645 128 -184 8 -333 -27
-433 -104 -42 -32 -29 -56 15 -26 38 27 100 50 154 58 l46 7 26 -54 c14 -29
43 -73 63 -96 20 -24 33 -46 29 -50 -4 -4 -100 -7 -213 -7 -186 0 -214 2 -277
22 -167 52 -221 173 -125 277 67 73 215 131 435 172 l100 18 -80 10 c-69 8
-248 -1 -315 -16 -11 -2 -16 9 -18 47 l-3 50 138 -12 c76 -6 222 -12 324 -12
176 -1 188 0 230 22 33 18 50 36 69 74 22 44 32 54 77 73 91 38 153 128 153
223 0 31 5 39 38 57 61 34 102 110 102 187 0 32 1 33 40 33 65 0 190 29 255
59 119 55 174 128 175 230 1 196 -192 257 -610 195 -212 -31 -457 -107 -939
-288 -112 -43 -204 -76 -205 -74 -2 2 -11 59 -20 127 -14 102 -45 241 -81 366
-6 19 -2 20 57 18 l63 -2 -41 13 c-61 21 -102 44 -114 65 -13 26 -13 41 3 41
21 0 131 56 164 84 18 15 42 41 54 58 l22 30 -47 -36 c-53 -40 -129 -66 -193
-66 l-44 0 15 28 c20 39 86 248 85 269 0 10 -20 -22 -43 -72 -67 -142 -254
-435 -277 -435 -17 0 -124 119 -175 196 -58 88 -101 176 -130 266 l-17 57 51
59 c67 78 152 197 177 250 11 23 23 42 26 42 3 0 11 -17 17 -37 6 -21 28 -63
48 -93 38 -59 38 -57 0 35 -21 48 -26 76 -26 145 0 97 24 170 80 239 l32 41
151 -153 c84 -85 190 -185 237 -223z m2517 -56 c-1 -79 -3 -17 -3 137 0 154 2
218 3 143 2 -75 2 -201 0 -280z m-2183 57 c528 -219 1070 -335 1577 -335 l167
0 -52 -78 c-60 -89 -118 -222 -149 -337 -11 -44 -21 -81 -21 -82 -5 -10 -399
122 -606 204 -477 188 -999 502 -1305 786 l-50 47 142 -70 c77 -38 211 -99
297 -135z m630 11 c35 -14 79 -65 90 -103 l7 -22 -63 18 c-35 10 -91 26 -126
36 -34 10 -61 23 -59 29 4 13 85 56 104 56 8 0 29 -6 47 -14z m2440 -183 l48
-117 -28 -24 c-73 -60 -179 -135 -275 -194 -124 -77 -324 -188 -337 -188 -6 0
-32 30 -58 68 -57 79 -175 205 -257 273 -32 27 -54 49 -48 49 25 0 296 54 386
76 128 32 316 94 425 138 47 19 88 35 91 36 3 0 27 -53 53 -117z m-1977 -9
c-3 -3 -12 -4 -19 -1 -8 3 -5 6 6 6 11 1 17 -2 13 -5z m360 -40 c-3 -3 -12 -4
-19 -1 -8 3 -5 6 6 6 11 1 17 -2 13 -5z m393 -117 c0 -2 -10 -12 -22 -23 l-23
-19 19 23 c18 21 26 27 26 19z m-2957 -164 c9 -18 17 -34 17 -37 0 -8 -127
-96 -138 -96 -13 0 -95 135 -90 149 1 5 37 38 78 74 l75 64 21 -61 c11 -34 28
-75 37 -93z m2984 -100 c15 -16 34 -23 58 -23 24 0 34 -4 29 -11 -10 -17 -83
-4 -100 18 -8 10 -24 36 -35 58 l-20 40 23 -30 c13 -16 33 -40 45 -52z m31
-372 c-2 -70 -7 -96 -17 -99 -11 -4 -13 5 -8 43 4 26 8 114 8 194 l2 146 8
-95 c5 -52 8 -137 7 -189z m-2525 102 c51 -171 87 -351 87 -439 l0 -42 -102
-12 c-106 -13 -237 -9 -325 10 -60 13 -61 3 5 142 41 89 47 96 65 86 17 -8 23
-6 39 13 21 27 108 173 159 267 18 34 36 62 40 62 3 0 18 -39 32 -87z m-592 5
c21 -27 21 -31 -22 -233 -32 -146 -82 -322 -118 -413 -19 -48 -20 -56 -7 -81
24 -46 125 -111 249 -161 l57 -22 32 31 c53 52 153 69 278 47 105 -19 205 -67
237 -115 24 -35 30 -85 13 -96 -5 -3 -10 -10 -10 -14 0 -7 194 -46 380 -76
l85 -14 -95 5 c-313 18 -762 115 -1143 247 -175 61 -203 76 -218 114 -13 34
-9 44 71 203 37 74 84 178 103 230 37 100 77 272 77 334 0 42 5 44 31 14z
m179 -176 c25 -19 47 -36 49 -38 2 -2 -3 -14 -11 -26 -8 -13 -32 -64 -53 -113
-21 -50 -39 -91 -40 -93 -2 -2 -20 4 -42 13 l-40 16 15 52 c8 29 20 81 27 117
20 102 26 121 39 113 6 -4 31 -22 56 -41z m3164 -103 c-35 -38 -240 -106 -260
-86 -4 3 -3 31 0 61 l7 54 61 11 c33 6 88 23 122 39 l61 29 12 -46 c10 -38 10
-48 -3 -62z m3657 -62 c46 -29 145 -94 219 -143 74 -50 202 -133 285 -184 142
-90 148 -95 120 -102 -29 -7 -993 -88 -1046 -88 -23 0 -25 3 -21 29 3 24 10
30 35 35 18 2 209 20 425 38 215 18 392 35 392 38 0 3 -125 86 -278 185 l-277
180 -70 -3 c-107 -4 -1904 -111 -1954 -116 -42 -4 -53 -13 -272 -232 -126
-125 -227 -230 -225 -232 3 -2 196 4 431 13 234 10 429 15 432 11 3 -3 -1 -23
-8 -43 l-15 -38 -74 -3 c-41 -1 -288 -11 -549 -22 -261 -11 -476 -18 -478 -16
-2 2 150 142 337 312 l340 309 267 17 c148 9 495 31 773 48 278 17 597 37 710
44 113 7 252 14 311 15 l105 1 85 -53z m-5614 -414 c-1 -82 -3 -15 -3 147 0
162 2 229 3 148 2 -82 2 -214 0 -295z m-230 175 c-2 -35 -3 -9 -3 57 0 66 1
94 3 63 2 -32 2 -86 0 -120z m1943 133 c0 -55 -20 -293 -26 -313 -7 -22 -34
-24 -34 -2 0 15 24 223 36 312 7 53 24 55 24 3z m-1960 -201 c46 -12 100 -55
100 -79 0 -23 -57 -77 -102 -96 -30 -12 -38 -21 -39 -43 l-2 -27 -4 28 c-3 21
-9 27 -20 23 -8 -3 -19 -6 -24 -6 -5 0 -10 -8 -10 -17 -1 -17 -2 -17 -6 0 -5
20 -23 23 -23 5 0 -9 -4 -8 -11 2 -9 12 -12 13 -16 1 -5 -11 -7 -11 -15 0 -8
12 -10 12 -15 0 -3 -8 -8 -9 -12 -3 -9 14 -51 25 -51 13 0 -5 -12 2 -27 17
l-28 27 -5 -25 c-3 -14 -7 47 -10 135 l-6 160 -2 -157 c-1 -92 -6 -158 -12
-158 -5 0 -10 66 -12 155 -2 85 0 155 4 155 3 0 13 3 22 6 14 5 16 -7 16 -95
l0 -102 25 18 c23 17 25 25 27 113 l2 95 3 -87 c2 -49 8 -88 13 -88 35 0 40
13 42 104 l2 91 3 -88 c4 -86 4 -88 26 -81 12 4 30 7 40 6 15 -1 17 11 19 101
l2 102 3 -97 c4 -97 4 -98 28 -98 25 0 25 0 27 108 l2 107 3 -107 4 -107 39
-11z m-133 58 c-2 -24 -4 -5 -4 42 0 47 2 66 4 43 2 -24 2 -62 0 -85z m4753
77 c0 -55 -6 -56 -110 -17 -124 47 -123 46 -35 52 161 12 145 16 145 -35z
m179 7 c97 -35 93 -38 -56 -45 -89 -4 -93 -4 -93 17 0 11 -3 32 -7 45 -6 22
-4 23 33 19 21 -3 77 -19 123 -36z m-4962 -94 c-2 -24 -4 -5 -4 42 0 47 2 66
4 43 2 -24 2 -62 0 -85z m-889 72 c111 -40 231 -60 368 -60 l114 0 -2 -117 -2
-118 -3 113 c-2 67 -8 112 -14 112 -6 0 -9 -39 -8 -105 1 -58 -1 -109 -5 -112
-3 -4 -6 44 -6 105 0 68 -4 112 -10 112 -6 0 -10 -42 -10 -107 0 -58 -3 -104
-6 -100 -4 3 -6 51 -5 107 1 65 -2 100 -8 100 -7 0 -11 -37 -11 -101 l0 -100
-57 6 c-32 4 -92 14 -133 22 -41 8 -106 21 -145 28 -83 16 -137 34 -147 49 -9
14 -10 88 -2 150 4 25 7 46 8 46 1 0 39 -13 84 -30z m5142 14 c0 -11 -6 -14
-22 -9 -39 12 -44 25 -10 25 22 0 32 -5 32 -16z m175 -9 c88 -33 95 -38 65
-46 -45 -13 -112 -9 -161 8 -39 14 -49 22 -49 40 0 20 5 23 40 23 22 0 69 -11
105 -25z m-4642 -32 c-10 -3 -13 -42 -13 -144 0 -132 -1 -139 -20 -139 -19 0
-20 7 -20 139 0 145 1 149 45 149 11 0 14 -2 8 -5z m-71 -143 c-3 -121 -4
-130 -23 -130 -18 0 -19 8 -19 114 0 63 -3 121 -6 130 -5 12 0 16 22 16 l29 0
-3 -130z m5484 103 c41 -16 74 -31 74 -34 0 -6 -260 -23 -265 -17 -1 2 -5 20
-9 41 l-7 37 67 0 c49 0 87 -8 140 -27z m-5558 10 c-16 -4 -18 -18 -18 -114 0
-80 3 -109 13 -110 9 0 9 -2 0 -6 -7 -2 -15 -4 -18 -4 -4 1 -7 55 -8 121 l-2
120 25 -1 c17 -1 19 -3 8 -6z m5333 -25 c9 -34 6 -34 -68 -7 -86 32 -88 40 -9
37 66 -3 70 -4 77 -30z m-6041 -54 c4 -84 1 -104 -15 -97 -9 3 -22 18 -30 34
-13 25 -13 33 7 85 18 46 23 53 29 37 4 -11 8 -38 9 -59z m5718 54 c7 -7 12
-22 12 -35 0 -17 -6 -23 -23 -23 -20 0 -175 55 -186 66 -2 2 38 4 90 4 61 0
99 -4 107 -12z m-2707 -25 c-12 -20 -14 -14 -5 12 4 9 9 14 11 11 3 -2 0 -13
-6 -23z m2802 -4 c52 -17 46 -29 -13 -29 -47 0 -50 2 -50 26 0 17 4 24 13 20
6 -2 29 -10 50 -17z m623 -32 c-10 -7 -39 -27 -63 -45 l-45 -33 -44 17 c-34
13 -44 22 -44 40 0 27 16 31 135 32 66 1 77 -1 61 -11z m-226 -16 c0 -17 -3
-18 -30 -8 -16 6 -30 15 -30 19 0 4 14 8 30 8 23 0 30 -5 30 -19z m-290 -31
c0 -16 -4 -30 -8 -30 -5 0 -40 11 -78 24 -61 22 -65 25 -39 29 17 2 51 5 78 6
46 1 47 0 47 -29z m-2346 -27 c26 -76 25 -78 -76 -128 -104 -51 -211 -81 -324
-91 l-76 -7 7 54 c10 82 13 88 48 93 167 24 270 53 348 99 24 14 47 25 51 26
3 1 13 -20 22 -46z m2414 41 c32 -9 27 -24 -8 -24 -20 0 -30 5 -30 15 0 17 4
18 38 9z m497 -66 c-76 -124 -140 -305 -165 -466 -14 -82 -14 -82 -49 -92 -64
-18 -65 -17 -58 53 7 71 45 200 87 290 57 123 158 257 194 257 15 0 13 -6 -9
-42z m-335 3 c39 -17 40 -19 16 -23 -18 -4 -32 2 -47 18 -27 29 -23 29 31 5z
m-116 -41 c14 -5 30 -19 36 -32 10 -21 10 -21 -3 -5 -8 9 -16 17 -18 17 -2 0
-4 -105 -4 -232 l1 -233 -3 228 c-2 125 -7 227 -12 227 -10 0 -51 -61 -77
-115 -17 -35 -19 -64 -19 -247 0 -115 -3 -208 -7 -208 -4 0 -9 78 -11 173 l-3
172 -2 -178 -2 -178 -22 6 c-67 20 -108 76 -108 146 0 44 28 196 48 265 18 58
82 164 82 134 0 -7 -6 -18 -14 -24 -7 -6 -16 -27 -19 -46 -6 -34 -6 -34 17 12
42 83 67 112 113 127 1 1 13 -3 27 -9z m1718 -87 c-33 -91 -26 -88 -208 -97
-71 -4 -235 -16 -364 -26 -129 -11 -269 -22 -310 -25 -41 -3 -100 -8 -131 -11
l-56 -6 25 76 c23 68 28 76 51 77 25 1 998 85 1013 88 4 0 -5 -34 -20 -76z
m-6505 20 c-3 -10 -5 -2 -5 17 0 19 2 27 5 18 2 -10 2 -26 0 -35z m4980 -17
l-32 -54 -12 46 c-17 64 -18 62 32 62 l44 0 -32 -54z m-454 -35 c-15 -38 -16
-39 -77 -44 -59 -4 -62 -3 -99 32 l-38 36 33 6 c18 4 70 7 115 8 l81 1 -15
-39z m324 -118 c-2 -32 -3 -8 -3 52 0 61 1 87 3 58 2 -29 2 -78 0 -110z m-601
92 c18 -14 53 -54 77 -88 91 -132 129 -233 107 -286 -12 -31 -35 -45 -52 -34
-6 3 -8 1 -4 -5 3 -6 -3 -13 -14 -17 -77 -24 -205 116 -246 270 -33 120 -5
203 63 192 19 -4 50 -18 69 -32z m461 -337 c-1 -62 -3 -14 -3 107 0 121 2 172
3 113 2 -59 2 -158 0 -220z m41 -63 c2 6 3 82 2 170 0 94 4 166 10 175 7 10
10 -38 9 -162 -1 -176 -1 -176 -26 -200 -22 -19 -25 -20 -20 -5 4 10 8 103 9
205 l2 187 6 -190 c3 -104 7 -185 8 -180z m73 287 c-1 -31 -5 -59 -7 -62 -3
-2 -4 26 -3 63 1 37 5 65 7 62 3 -3 4 -31 3 -63z m-2958 32 c-3 -9 7 -30 24
-52 44 -56 51 -69 26 -51 -66 47 -84 68 -77 94 3 14 12 25 20 25 8 0 11 -6 7
-16z m2165 -65 c7 -29 11 -53 10 -54 -2 -1 -73 -5 -158 -9 -497 -21 -825 -36
-897 -41 l-81 -5 -17 51 c-22 65 -17 68 95 70 47 0 263 9 480 18 217 10 431
19 476 20 l81 1 11 -51z m939 29 c-3 -8 -6 -5 -6 6 -1 11 2 17 5 13 3 -3 4
-12 1 -19z m0 -85 c-2 -16 -4 -5 -4 22 0 28 2 40 4 28 2 -13 2 -35 0 -50z
m-30 -120 c-2 -32 -3 -6 -3 57 0 63 1 89 3 58 2 -32 2 -84 0 -115z m170 45
c-2 -24 -4 -7 -4 37 0 44 2 63 4 43 2 -21 2 -57 0 -80z m-286 40 c-9 -31 -9
-31 -10 -6 -1 30 11 67 16 51 2 -6 0 -26 -6 -45z m63 -113 c3 -8 1 -15 -4 -15
-6 0 -10 7 -10 15 0 8 2 15 4 15 2 0 6 -7 10 -15z m-3709 -495 c13 -6 15 -9 5
-9 -8 0 -22 4 -30 9 -18 12 -2 12 25 0z m52 -16 c-3 -3 -12 -4 -19 -1 -8 3 -5
6 6 6 11 1 17 -2 13 -5z m63 -14 c20 -6 21 -8 5 -8 -11 0 -29 3 -40 8 -25 11
1 11 35 0z m115 -31 c15 -7 12 -7 -14 -3 l-33 6 3 -51 c2 -28 1 -51 -3 -51 -5
0 -8 25 -8 55 0 59 9 66 55 44z m58 -16 c-7 -2 -19 -2 -25 0 -7 3 -2 5 12 5
14 0 19 -2 13 -5z m44 -9 c-3 -3 -12 -4 -19 -1 -8 3 -5 6 6 6 11 1 17 -2 13
-5z m460 -80 c-3 -3 -12 -4 -19 -1 -8 3 -5 6 6 6 11 1 17 -2 13 -5z m66 -11
c-7 -2 -19 -2 -25 0 -7 3 -2 5 12 5 14 0 19 -2 13 -5z m-802 -1113 c6 -4 13
-64 16 -139 5 -110 4 -132 -8 -129 -12 3 -15 -101 -19 -677 l-5 -680 -3 678
-2 678 -27 24 c-26 22 -28 28 -28 103 0 74 2 83 28 109 l27 29 2 460 3 459 2
-454 c2 -306 7 -457 14 -461z m38 843 c-1 -32 -5 -87 -9 -123 -6 -58 -7 -51
-8 58 -1 76 2 122 8 122 6 0 9 -25 9 -57z m-372 -113 c33 -64 34 -108 12 -378
-13 -148 -13 -162 2 -162 56 0 95 -90 77 -174 -15 -72 -80 -120 -115 -85 -14
14 -14 16 -48 -196 -15 -88 -37 -213 -50 -278 -25 -118 -25 -118 -5 -139 26
-28 34 -76 27 -153 -10 -103 -81 -200 -154 -208 -18 -2 -49 -24 -89 -64 -61
-59 -188 -149 -271 -192 -24 -12 -43 -27 -43 -33 0 -28 -57 -82 -114 -109 -75
-34 -124 -42 -179 -29 -38 10 -55 7 -193 -39 -170 -57 -274 -101 -321 -137
-41 -31 -43 -30 -43 8 0 25 10 42 48 78 58 56 165 109 442 220 248 100 266
108 405 200 243 161 321 295 415 717 90 401 158 955 147 1188 -5 105 -4 108 9
65 8 -25 26 -70 41 -100z m1278 -214 c35 -263 45 -393 45 -616 0 -273 -18
-494 -59 -741 -19 -116 -52 -233 -112 -400 -69 -194 -99 -297 -99 -348 0 -27
-3 -32 -12 -23 -6 6 -11 33 -10 59 1 51 5 66 70 288 65 222 83 329 102 610 22
326 31 618 32 1020 0 231 4 404 8 385 5 -19 20 -125 35 -234z m-1108 92 c-2
-24 -4 -7 -4 37 0 44 2 63 4 43 2 -21 2 -57 0 -80z m1503 -1 c0 -46 3 -132 7
-190 4 -76 3 -107 -5 -107 -6 0 -9 6 -7 13 2 6 0 91 -5 187 l-8 175 3 -193 c3
-159 1 -194 -11 -199 -29 -11 -60 7 -84 49 -21 37 -24 55 -24 138 0 83 3 102
25 140 14 25 31 44 37 43 7 -2 11 0 11 5 -3 18 3 22 31 22 l30 0 0 -83z
m-1541 -947 c1 -195 -2 -300 -9 -300 -6 0 -10 80 -10 223 0 196 8 377 16 377
1 0 3 -135 3 -300z m1567 242 c6 -4 16 -56 23 -116 11 -98 11 -110 -5 -127
-35 -39 -137 -7 -120 37 3 8 2 13 -3 10 -11 -7 -21 28 -21 76 0 39 27 108 42
108 5 0 6 -6 2 -12 -4 -8 -3 -10 2 -5 5 5 10 13 10 18 1 5 2 11 3 14 2 8 55 6
67 -3z m-1666 -267 c0 -83 -1 -85 -24 -85 -13 0 -35 9 -50 21 -54 43 -22 149
46 149 l28 0 0 -85z m37 -12 c-3 -10 -5 -2 -5 17 0 19 2 27 5 18 2 -10 2 -26
0 -35z m303 -268 c7 -224 0 -685 -10 -685 -7 0 -9 167 -9 483 2 431 10 522 19
202z m-271 -21 c35 32 93 -12 75 -58 -10 -25 -51 -31 -74 -11 -20 18 -20 14
-20 -465 l0 -482 26 6 c17 5 23 3 19 -4 -3 -5 -18 -10 -33 -10 l-27 0 5 617
c2 340 6 567 8 504 3 -109 3 -113 21 -97z m1420 132 c19 -19 23 -34 23 -76 0
-42 -4 -57 -23 -75 -64 -63 -149 -15 -149 82 0 91 86 130 149 69z m-1491 -688
l-3 -483 -5 432 c-5 408 -3 533 6 533 2 0 3 -217 2 -482z m102 172 c0 -187 -4
-290 -10 -290 -6 0 -10 103 -10 290 0 187 4 290 10 290 6 0 10 -103 10 -290z
m1705 243 c15 -62 67 -181 98 -228 l34 -49 -20 -34 c-21 -36 -63 -62 -99 -62
-32 0 -91 37 -82 52 4 6 3 8 -4 4 -14 -9 -44 23 -38 41 3 8 1 11 -4 8 -18 -11
-43 67 -44 135 -1 101 42 157 125 159 21 1 28 -5 34 -26z m-1845 -503 l0 -390
-22 1 c-13 0 -17 3 -10 6 10 4 12 83 12 371 -1 326 2 402 16 402 2 0 4 -175 4
-390z m420 -56 l-6 -239 0 300 c-1 165 2 273 5 239 3 -33 4 -168 1 -300z
m-470 -16 c0 -182 -2 -329 -5 -326 -3 3 -5 144 -5 314 -1 374 -1 344 5 344 3
0 5 -149 5 -332z m-150 -331 c-101 -8 -1026 -1 -1140 8 -92 8 -126 16 -110 25
8 4 33 10 55 14 68 10 96 15 235 47 140 32 429 111 477 130 58 24 69 28 98 37
17 6 38 13 48 17 16 7 17 -4 17 -134 0 -119 2 -141 15 -141 13 0 15 22 13 143
l-2 142 -6 -140 -6 -140 -2 143 c-1 78 0 142 2 142 2 0 11 3 20 6 14 5 16 -11
16 -145 0 -83 3 -151 8 -151 4 0 6 69 5 152 -1 109 1 155 10 160 9 5 13 -33
17 -155 l6 -162 4 170 4 170 6 -170 6 -170 2 172 c1 101 6 174 12 178 7 4 10
-55 10 -169 0 -150 2 -176 15 -176 13 0 15 27 15 185 0 102 3 185 8 185 4 0 6
-83 4 -185 -3 -181 -2 -185 18 -185 19 0 20 5 20 178 0 124 -4 182 -12 190 -6
6 -10 13 -7 15 2 2 27 19 54 37 68 45 96 71 88 83 -3 6 -1 7 6 3 6 -4 17 -3
24 2 9 8 11 -45 9 -239 -2 -152 -6 -249 -12 -249 -6 0 -10 75 -10 191 0 169
-2 190 -15 179 -12 -10 -15 -45 -15 -196 l0 -184 40 0 41 0 -1 263 c0 144 1
271 2 282 1 11 5 -108 8 -265 l5 -285 -105 -8z m-2 516 c-10 -2 -28 -2 -40 0
-13 2 -5 4 17 4 22 1 32 -1 23 -4z m-89 -16 c-2 -1 -13 -9 -24 -17 -19 -14
-19 -14 -6 3 7 9 18 17 24 17 6 0 8 -1 6 -3z m2616 -97 c33 -15 54 -29 48 -29
-9 -1 -13 -21 -13 -66 0 -59 2 -65 21 -65 19 0 20 5 17 65 -1 36 -2 65 -1 65
1 0 13 -5 27 -11 27 -13 41 -50 29 -82 -6 -18 -9 -14 -13 22 -8 71 -30 65 -30
-8 0 -61 0 -61 -30 -61 l-29 0 -3 77 c-2 50 -7 78 -15 81 -8 2 -13 -6 -13 -22
0 -37 -18 -32 -22 6 -2 17 -9 33 -15 36 -10 3 -13 -15 -13 -67 0 -66 2 -71 28
-85 15 -8 23 -15 17 -16 -21 0 -76 41 -95 72 -24 40 -25 75 -3 100 21 24 37
22 108 -12z m-570 -74 c9 -14 15 -37 13 -53 -3 -24 -8 -28 -33 -28 -19 0 -29
5 -27 13 1 6 -4 11 -10 10 -9 -2 -14 12 -16 40 -3 41 -2 42 27 42 21 0 35 -7
46 -24z m-1288 -98 c-2 -18 -4 -6 -4 27 0 33 2 48 4 33 2 -15 2 -42 0 -60z"/>
<path d="M2334 6380 c0 -96 2 -136 3 -87 2 48 2 126 0 175 -1 48 -3 8 -3 -88z"/>
<path d="M2440 6335 c0 -144 -2 -166 -15 -161 -8 3 -15 3 -15 1 0 -6 61 -37
65 -33 2 2 5 72 6 155 2 141 0 153 -20 179 l-21 27 0 -168z"/>
<path d="M2240 6266 c0 -3 9 -10 20 -16 11 -6 20 -8 20 -6 0 3 -9 10 -20 16
-11 6 -20 8 -20 6z"/>
<path d="M2350 6206 c0 -3 9 -10 20 -16 11 -6 20 -8 20 -6 0 3 -9 10 -20 16
-11 6 -20 8 -20 6z"/>
<path d="M3046 9334 c-9 -23 -7 -2997 2 -3011 4 -6 7 381 8 860 0 480 3 917 6
972 4 55 3 78 0 50 -4 -27 -7 219 -7 547 0 329 -1 598 -1 598 -1 0 -5 -7 -8
-16z"/>
<path d="M3468 9133 c-10 -11 -18 -30 -18 -44 l0 -23 21 20 c12 13 19 31 17
44 -3 22 -3 22 -20 3z"/>
<path d="M3417 9072 c-11 -12 -16 -25 -13 -30 3 -5 -1 -18 -9 -28 -11 -15 -15
-16 -15 -4 -1 24 -40 -29 -40 -54 1 -23 8 -15 76 71 31 39 31 78 1 45z"/>
<path d="M3467 8984 c-11 -15 -17 -37 -15 -57 l3 -32 18 27 c11 15 17 39 15
56 l-3 30 -18 -24z"/>
<path d="M3307 8930 c-9 -13 -17 -35 -17 -48 0 -13 -4 -21 -9 -17 -13 7 -79
-112 -87 -156 -4 -27 4 -17 38 46 24 44 56 99 72 122 31 47 35 98 3 53z"/>
<path d="M3413 8917 c-13 -17 -19 -35 -16 -48 6 -20 6 -20 25 -1 13 12 18 29
16 48 l-3 29 -22 -28z"/>
<path d="M3356 8835 c-9 -13 -16 -37 -16 -52 l0 -27 16 22 c14 20 29 82 20 82
-2 0 -11 -11 -20 -25z"/>
<path d="M3274 8694 c-49 -93 -124 -283 -138 -349 -6 -27 -5 -28 8 -12 7 10
20 44 27 77 7 33 17 60 21 60 4 0 8 5 8 11 0 6 18 49 40 96 22 47 40 95 40
107 0 14 3 17 8 9 11 -17 45 48 40 77 -2 16 -16 -3 -54 -76z"/>
<path d="M3155 8624 c-23 -73 -14 -80 12 -9 12 30 17 57 13 60 -4 2 -15 -20
-25 -51z"/>
<path d="M3113 8498 c-10 -13 -38 -157 -32 -163 2 -2 13 37 25 86 11 49 20 89
19 89 -2 0 -7 -6 -12 -12z"/>
<path d="M3110 8254 c-1 -5 -5 -29 -10 -54 -9 -45 -14 -1609 -5 -1618 3 -3 7
-3 10 0 3 2 4 288 2 634 -3 927 -3 935 6 988 5 26 6 51 3 54 -3 3 -6 1 -6 -4z"/>
<path d="M3148 7062 c2 -416 5 -506 17 -529 13 -25 15 25 14 447 0 417 -2 482
-17 529 -16 52 -17 35 -14 -447z"/>
<path d="M3162 6418 c-19 -19 -16 -307 3 -332 13 -18 15 0 15 162 0 100 -1
182 -3 182 -2 0 -8 -5 -15 -12z"/>
<path d="M4424 8225 c-157 -34 -281 -147 -334 -306 -18 -53 -21 -81 -18 -159
3 -85 8 -104 41 -173 136 -287 509 -353 731 -130 158 157 180 394 56 581 -67
100 -173 169 -296 191 -72 14 -103 13 -180 -4z m35 -274 c-26 -8 -81 -67 -99
-104 -30 -61 -23 -119 18 -169 10 -12 14 -50 15 -145 l1 -128 3 118 c2 65 7
117 11 115 4 -2 19 -10 35 -17 l27 -14 0 -118 c0 -112 -1 -117 -20 -112 -18 5
-20 15 -22 127 l-2 121 -6 -123 -5 -123 -71 35 c-228 115 -302 393 -159 602
39 57 110 118 125 109 6 -3 10 -2 10 3 0 6 6 12 13 15 6 3 29 13 50 21 l38 17
-2 -116 c-1 -64 1 -119 5 -122 3 -4 6 48 6 115 0 107 2 121 18 124 15 3 17 -8
20 -112 2 -79 -1 -116 -9 -119z m41 124 c0 -70 -4 -115 -10 -115 -6 0 -10 45
-10 115 0 70 4 115 10 115 6 0 10 -45 10 -115z m48 -2 l-2 -118 -3 113 c-2 61
-8 112 -13 112 -5 0 -11 -51 -13 -112 l-3 -113 -2 118 c-2 111 -1 117 18 117
19 0 20 -6 18 -117z m32 2 c0 -63 -3 -115 -7 -115 -5 0 -8 52 -8 115 0 63 3
115 8 115 4 0 7 -52 7 -115z m17 -67 c-2 -35 -3 -9 -3 57 0 66 1 94 3 63 2
-32 2 -86 0 -120z m30 -15 c-2 -37 -3 -9 -3 62 0 72 1 102 3 68 2 -34 2 -93 0
-130z m80 -55 c-1 -40 -3 -8 -3 72 0 80 2 112 3 73 2 -40 2 -106 0 -145z m0
-125 c-3 -10 -5 -4 -5 12 0 17 2 24 5 18 2 -7 2 -21 0 -30z m0 -90 c-3 -10 -5
-4 -5 12 0 17 2 24 5 18 2 -7 2 -21 0 -30z m0 -245 c-1 -40 -3 -8 -3 72 0 80
2 112 3 73 2 -40 2 -106 0 -145z m-80 -35 c-2 -37 -3 -9 -3 62 0 72 1 102 3
68 2 -34 2 -93 0 -130z m-30 -5 c-2 -35 -3 -9 -3 57 0 66 1 94 3 63 2 -32 2
-86 0 -120z m-97 47 c0 -70 -4 -115 -10 -115 -6 0 -10 45 -10 115 0 70 4 115
10 115 6 0 10 -45 10 -115z m30 -105 c5 0 11 51 13 113 l3 112 2 -117 c2 -112
1 -118 -18 -118 -19 0 -20 6 -18 118 l2 117 3 -112 c2 -62 8 -113 13 -113z
m50 105 c0 -63 -3 -115 -7 -115 -5 0 -8 52 -8 115 0 63 3 115 8 115 4 0 7 -52
7 -115z"/>
<path d="M4440 8059 c0 -71 4 -108 10 -104 6 3 10 52 10 111 0 63 -4 104 -10
104 -6 0 -10 -44 -10 -111z"/>
<path d="M4394 8070 c0 -52 1 -74 3 -47 2 26 2 68 0 95 -2 26 -3 4 -3 -48z"/>
<path d="M4338 8116 c-3 -14 -1 -31 3 -38 6 -8 9 1 9 25 0 42 -6 48 -12 13z"/>
<path d="M4363 8105 c0 -22 2 -30 4 -17 2 12 2 30 0 40 -3 9 -5 -1 -4 -23z"/>
<path d="M4360 8041 c0 -6 4 -13 10 -16 6 -3 7 1 4 9 -7 18 -14 21 -14 7z"/>
<path d="M4314 7630 c0 -107 2 -151 3 -97 2 53 2 141 0 195 -1 53 -3 9 -3 -98z"/>
<path d="M4234 7660 c0 -85 2 -120 3 -77 2 42 2 112 0 155 -1 42 -3 7 -3 -78z"/>
<path d="M4344 7565 c0 -82 2 -115 3 -72 2 43 2 110 0 150 -1 40 -3 5 -3 -78z"/>
<path d="M4364 7545 c0 -71 1 -99 3 -62 2 37 2 96 0 130 -2 34 -3 4 -3 -68z"/>
<path d="M4440 7501 c0 -67 4 -111 10 -111 6 0 10 41 10 104 0 59 -4 108 -10
111 -6 4 -10 -33 -10 -104z"/>
<path d="M2560 8880 c0 -110 4 -200 8 -200 27 0 32 30 32 212 0 181 -1 188
-20 188 -19 0 -20 -7 -20 -200z"/>
<path d="M2460 8998 c-17 -29 -20 -51 -20 -170 0 -126 2 -138 20 -148 19 -10
19 -5 22 170 2 99 2 180 0 180 -1 0 -11 -15 -22 -32z"/>
<path d="M7777 5986 c-70 -74 -127 -137 -127 -140 0 -3 6 -6 13 -6 7 0 21 -6
31 -13 17 -12 16 -17 -12 -80 l-31 -67 29 -15 c16 -8 33 -15 37 -15 5 0 23 29
41 65 l32 65 31 -15 c17 -9 32 -15 34 -13 5 5 56 361 52 365 -2 1 -61 -57
-130 -131z"/>
<path d="M6380 5985 c0 -8 4 -15 10 -15 5 0 7 7 4 15 -4 8 -8 15 -10 15 -2 0
-4 -7 -4 -15z"/>
<path d="M7080 5963 c0 -12 5 -25 10 -28 13 -8 13 15 0 35 -8 12 -10 11 -10
-7z"/>
<path d="M7066 5787 c-12 -46 -7 -115 10 -121 30 -12 34 -6 34 49 0 30 3 55 8
55 4 -1 24 -36 44 -80 28 -60 44 -83 68 -95 31 -16 32 -16 25 5 -4 12 -21 51
-37 86 -28 59 -36 68 -88 94 l-58 29 -6 -22z"/>
<path d="M6356 5638 c-5 -34 -46 -541 -46 -567 0 -8 3 -11 7 -7 4 3 23 138 43
299 36 283 37 306 8 307 -4 0 -9 -15 -12 -32z"/>
<path d="M6500 5605 c0 -6 268 -643 279 -662 10 -19 11 -17 42 172 12 72 25
138 28 149 5 13 30 -34 91 -173 46 -105 87 -188 91 -183 3 4 14 101 24 215 16
180 16 210 4 218 -32 20 -37 9 -44 -98 -12 -172 -11 -173 -95 22 -41 95 -79
173 -85 174 -5 1 -15 -31 -22 -71 -31 -187 -46 -259 -52 -251 -4 4 -50 110
-102 235 -86 208 -96 228 -126 242 -18 9 -33 14 -33 11z"/>
<path d="M7573 5499 l-22 -50 25 -9 c14 -6 29 -10 33 -10 7 0 54 90 49 95 -9
7 -48 25 -55 25 -4 0 -18 -23 -30 -51z"/>
<path d="M7413 5130 c12 -27 25 -50 28 -50 6 0 29 46 29 59 0 6 -63 41 -75 41
-2 0 6 -22 18 -50z"/>
<path d="M1760 4395 c0 -57 4 -95 10 -95 6 0 10 38 10 95 0 57 -4 95 -10 95
-6 0 -10 -38 -10 -95z"/>
<path d="M2034 4390 c0 -74 1 -105 3 -67 2 37 2 97 0 135 -2 37 -3 6 -3 -68z"/>
<path d="M1974 4390 c0 -69 1 -97 3 -62 2 34 2 90 0 125 -2 34 -3 6 -3 -63z"/>
<path d="M1203 4395 c0 -33 2 -45 4 -27 2 18 2 45 0 60 -2 15 -4 0 -4 -33z"/>
<path d="M7070 4100 c0 -19 -2 -46 -5 -60 -3 -14 2 -5 10 19 10 29 11 49 5 60
-7 12 -9 8 -10 -19z"/>
<path d="M7043 3975 c0 -33 2 -45 4 -27 2 18 2 45 0 60 -2 15 -4 0 -4 -33z"/>
<path d="M7015 3874 c-5 -38 -3 -79 3 -97 8 -27 10 -16 11 66 1 53 -1 97 -3
97 -3 0 -8 -30 -11 -66z"/>
<path d="M7114 3825 c0 -49 1 -71 3 -48 2 23 2 64 0 90 -2 26 -3 8 -3 -42z"/>
<path d="M4988 2303 c7 -3 16 -2 19 1 4 3 -2 6 -13 5 -11 0 -14 -3 -6 -6z"/>
<path d="M5018 1893 c6 -2 18 -2 25 0 6 3 1 5 -13 5 -14 0 -19 -2 -12 -5z"/>
<path d="M5061 1854 c0 -21 4 -59 9 -84 6 -34 7 -25 3 35 -6 84 -14 115 -12
49z"/>
<path d="M5076 1673 c-6 -14 -5 -15 5 -6 7 7 10 15 7 18 -3 3 -9 -2 -12 -12z"/>
<path d="M5008 1653 c7 -3 16 -2 19 1 4 3 -2 6 -13 5 -11 0 -14 -3 -6 -6z"/>
<path d="M3326 1688 c-24 -34 -21 -94 6 -112 12 -9 30 -16 40 -16 16 0 18 10
18 75 0 73 -1 75 -24 75 -14 0 -32 -10 -40 -22z"/>
<path d="M3731 1274 c0 -11 3 -14 6 -6 3 7 2 16 -1 19 -3 4 -6 -2 -5 -13z"/>
<path d="M5162 1028 c2 -134 6 -182 16 -186 9 -3 12 38 12 182 0 160 -2 186
-15 186 -13 0 -15 -24 -13 -182z"/>
<path d="M5110 1045 c0 -97 4 -155 10 -155 6 0 10 58 10 155 0 97 -4 155 -10
155 -6 0 -10 -58 -10 -155z"/>
<path d="M5208 993 c2 -87 6 -160 8 -162 10 -11 13 13 15 129 1 87 -3 135 -12
158 -13 30 -14 17 -11 -125z"/>
<path d="M5062 1110 c0 -14 2 -19 5 -12 2 6 2 18 0 25 -3 6 -5 1 -5 -13z"/>
<path d="M5062 1010 c0 -14 2 -19 5 -12 2 6 2 18 0 25 -3 6 -5 1 -5 -13z"/>
<path d="M5250 937 c0 -75 3 -98 13 -95 19 7 21 131 3 165 -14 27 -15 23 -16
-70z"/>
<path d="M5301 910 c0 -33 1 -34 11 -12 8 17 8 26 0 34 -9 9 -12 4 -11 -22z"/>
<path d="M3108 653 l-38 -4 0 -181 0 -180 31 6 c17 3 38 6 45 6 11 0 14 34 14
180 0 99 -3 179 -7 178 -5 -1 -25 -3 -45 -5z"/>
<path d="M2814 420 c0 -74 1 -105 3 -67 2 37 2 97 0 135 -2 37 -3 6 -3 -68z"/>
<path d="M2794 415 c0 -72 1 -99 3 -62 2 37 2 96 0 130 -2 34 -3 4 -3 -68z"/>
<path d="M5587 703 c-15 -15 -7 -91 13 -114 l19 -24 1 73 c0 53 -3 72 -13 72
-8 0 -17 -3 -20 -7z"/>
<path d="M5068 623 c7 -3 16 -2 19 1 4 3 -2 6 -13 5 -11 0 -14 -3 -6 -6z"/>
<path d="M5112 570 c0 -19 2 -27 5 -17 2 9 2 25 0 35 -3 9 -5 1 -5 -18z"/>
</g>
</svg>
