<?xml version="1.0" encoding="UTF-8"?>
<svg viewBox="0 0 428.3 436.39" xmlns="http://www.w3.org/2000/svg">
 <g fill="#800080" stroke="#ff80ff">
  <path d="m89.811 251.51c-9.8909 11.822-35.175 19.745-60.883 55.509-11.948 19.914-14.508 53.099 28.318 24.004 21.337-17.576 23.78-65.415 55.219-54.509 23.907 9.5307-25.919 39.925-27.582 60.596 0.45587 40.955 53.084 19.436 55.186 2.4145 6.9043-34.238 11.019-47.847 23.364-49.25 15.808 2.3774-11.649 35.586-9.8928 50.371 3.4012 34.184 52.018 27.4 52.359 2.7075 0.52867-18.963-12.356-55.309 4.9681-56.908 20.277 0.84485 2.9121 26.017 1.4292 51.078 5.4545 49.872 62.084 30.104 56.61 0-1.42-16.337-30.858-36.774-14.854-49.008 24.331-11.069 12.807 31.234 22.662 47.008 18.84 28.424 83.124 32.909 62.971-7.2431-14.474-29.245-55.908-37.237-44.573-45.766 38.021-18.725 39.68 42.093 66.563 56.149 33.323 21.824 45.952-10.452 30.438-34.525-25.999-32.629-49.972-35.988-72.931-53.63l-229.37 1.0002h-1.5e-5z" stroke-width="2.524"/>
  <path d="m79.361 244.39c18.167 34.817 228.43 36.148 250.32 4.2426 10.782-21.122 25.4-54.591-32.527-107.48-58.926-43.896-131.99-48.65-175.36-9.8995-45.891 41.448-60.645 79.232-42.426 113.14z" stroke-width="3"/>
 </g>
 <path d="m201.9 197.77c0 20.246-16.413 36.659-36.659 36.659s-36.659-16.413-36.659-36.659 16.413-36.659 36.659-36.659 36.659 16.413 36.659 36.659z" fill="#fff"/>
 <g stroke="#000" stroke-width=".1">
  <path d="m189.32 196.85c0 15.432-10.983 27.943-24.532 27.943-13.548 0-24.532-12.51-24.532-27.943 0-15.432 10.983-27.943 24.532-27.943 13.548 0 24.532 12.51 24.532 27.943z"/>
  <path d="m177.28 182.69c0 5.073-4.1125 9.1855-9.1855 9.1855s-9.1855-4.1125-9.1855-9.1855 4.1125-9.1855 9.1855-9.1855 9.1855 4.1124 9.1855 9.1855z" fill="#fff"/>
 </g>
 <path d="m290.29 197.77c0 20.246-16.413 36.659-36.659 36.659s-36.659-16.413-36.659-36.659 16.413-36.659 36.659-36.659 36.659 16.413 36.659 36.659z" fill="#fff"/>
 <g stroke="#000" stroke-width=".1">
  <path d="m277.71 196.85c0 15.432-10.983 27.943-24.532 27.943-13.548 0-24.532-12.51-24.532-27.943 0-15.432 10.983-27.943 24.532-27.943 13.548 0 24.532 12.51 24.532 27.943z"/>
  <path d="m265.66 182.69c0 5.073-4.1125 9.1855-9.1855 9.1855s-9.1855-4.1125-9.1855-9.1855 4.1125-9.1855 9.1855-9.1855 9.1855 4.1124 9.1855 9.1855z" fill="#fff"/>
 </g>
 <g fill="#ff80ff">
  <path d="m191.64 128.86c0 5.8021-4.7035 10.506-10.506 10.506-5.8021 0-10.506-4.7035-10.506-10.506 0-5.8021 4.7035-10.506 10.506-10.506 5.8021 0 10.506 4.7035 10.506 10.506z"/>
  <path d="m234.77 131.69c0 9.3168-7.2362 16.87-16.162 16.87-8.9263 0-16.162-7.5528-16.162-16.87 0-9.3168 7.2362-16.87 16.162-16.87 8.9263 0 16.162 7.5528 16.162 16.87z"/>
  <path d="m201.54 155.02c0 3.4589-2.804 6.2629-6.2629 6.2629s-6.263-2.804-6.263-6.2629 2.804-6.263 6.263-6.263c3.4589 0 6.2629 2.804 6.2629 6.263z"/>
  <path d="m239.02 249.07c0 6.1926-12.618 11.213-28.183 11.213s-28.183-5.0201-28.183-11.213c0-6.1926 12.618-11.213 28.183-11.213s28.183 5.0201 28.183 11.213z"/>
 </g>
 <g fill="none" stroke="#fff" stroke-linejoin="round" stroke-width="3">
  <path d="m113.62 79.216c0 14.912-12.088 27-27 27s-27-12.088-27-27 12.088-27 27-27 27 12.088 27 27z"/>
  <path d="m121.99 24.216c0 11.249-9.1192 20.368-20.368 20.368s-20.368-9.1193-20.368-20.368 9.1192-20.368 20.368-20.368 20.368 9.1193 20.368 20.368z"/>
  <path d="m156.31 64.216c0 8.1099-6.5743 14.684-14.684 14.684-8.1099 0-14.684-6.5744-14.684-14.684 0-8.1099 6.5744-14.684 14.684-14.684 8.1099 0 14.684 6.5744 14.684 14.684z"/>
  <path d="m384.43 79.06c12.481-8.1601 29.214-4.6573 37.374 7.8235 8.1601 12.481 4.6574 29.214-7.8235 37.374s-29.214 4.6574-37.374-7.8235-4.6573-29.214 7.8235-37.374z"/>
  <path d="m345.81 124.15c9.4153-6.1558 22.038-3.5134 28.194 5.902 6.1558 9.4154 3.5134 22.038-5.902 28.194-9.4154 6.1558-22.038 3.5134-28.194-5.902-6.1558-9.4154-3.5135-22.038 5.902-28.194z"/>
  <path d="m356.51 51.542c6.7878-4.4379 15.888-2.533 20.326 4.2549 4.4379 6.7878 2.5329 15.888-4.2549 20.326-6.7879 4.4379-15.888 2.5329-20.326-4.2549-4.4379-6.7879-2.533-15.888 4.2549-20.326z"/>
  <path d="m16.425 108.06c12.481-8.1601 29.214-4.6573 37.374 7.8235 8.1601 12.481 4.6574 29.214-7.8235 37.374s-29.214 4.6574-37.374-7.8235-4.6573-29.214 7.8235-37.374z"/>
 </g>
</svg>
