<?xml version="1.0" encoding="UTF-8"?>
<svg viewBox="0 0 429.11478 617.5683" xmlns="http://www.w3.org/2000/svg">
 <g transform="translate(-23.231 136.96)">
  <path d="m305.86 237.28c80.679 18.932 141.74 43.463 119.86 59.917 7.4779 20.27-19.975 34.364-73.106 34.418 52.033-28.553 44.33-17.174 61.312-31.298-6.566-14.505-39.698-6.5081-97.803 8.3836 59.28-38.335 91.864-29.726 108.15-16.533 3.3202-22.58-116.11-42.068-127.33-43.762z" fill="#68970a"/>
  <path d="m213.69 242.75c-55.914 7.5053-42.249 38.471-76.614 79.979-15.647-21.564-63.973-6.2176-113.85 39.468 53.931-9.7893 82.157-48.345 101.86-25.009 15.714 19.286-17.98 30.144-60.824 72.122 103.96-51.425 79.823-61.602 76.978-82.367 32.955-43.212 25.915-72.494 77.299-64.928z" fill="#68970a"/>
  <path d="m363.31 392.54c-13.026 4.2072 3.1005 7.396-20.23 56.342-3.3486 9.4301 9.1364-7.7449 46.467-4.7351l-21.117-4.3284c5.2377-0.92692 11.465 0.20018 18.353-1.9689-7.4429-1.4312 2.8997-9.4812-32.181-0.62728 8.4182-17.634 29.462-36.186 17.225-52.637-9.0877-17.693-59.295-13.836-63.893-8.5337 0 0-17.063 43.128 55.375 16.488z" fill="#67950a"/>
  <path d="m172.73 405.25c13.571 1.7857-1.7139 7.8343 30.072 51.763 4.9965 8.6703-10.385-5.9676-46.558 3.7342l19.988-8.0707c-5.319 0.0342-11.24 2.2673-18.407 1.3778 7.0621-2.7518-4.5642-8.8016 31.539-6.4286-11.464-15.824-35.513-30.271-26.448-48.661 5.7432-19.043 55.821-24.316 61.302-19.932 0 0 24.571 39.338-51.487 26.217z" fill="#67950a"/>
  <path transform="translate(81.822 -22.223)" d="m370.52 191.51c0 40.302-114.66 50.575-128.82 95.348-9.5088 30.06-27.073 68.224-16.729 97.73 21.013 59.941 8.8275 85.784-34.053 88.318-39.944 2.3603-67.032-4.4291-53.033-84.172 5.2213-29.743-4.0056-71.896-14.734-100.65-16.819-45.081-111.84-55.281-111.84-96.572 0-123.85 36.457-306.25 179.6-306.25s179.6 182.4 179.6 306.25z" fill="#7bb10b"/>
  <path transform="translate(-1.4286 -4.2857)" d="m291.43 368.08c-8.1887 41.81 23.456 62.573-25.714 63.571-39.865 0.80978-21.686-22.5-30-64.286-17.857-89.748 5.8404-72.143 30.714-74.286 21.224-1.8284 42.857-16.176 25 75z"/>
  <g transform="translate(-2.1713 11.112)">
   <path d="m406.73 146.42c8.5697 18.779-6.9069 44.235-34.568 56.858s-85.52 20.633-94.09 1.854 37.492-84.641 65.153-97.264 54.935 19.773 63.505 38.552z"/>
   <path d="m128.52 133.74c-10.834 17.57 1.3624 44.751 27.243 60.71s82.298 31.089 93.132 13.519-30.668-80.888-56.548-96.847-52.992 5.048-63.827 22.618z"/>
  </g>
  <path d="m253.55 224.04-1.0102 58.589-3.9186-15.869z" stroke="#000"/>
  <path d="m259.73 224.04 1.0102 58.589 3.666-16.121z" stroke="#000"/>
  <path d="m239.68 292.11c2.4861 15.427 8.262 31.111 13.083 46.193-0.58397-15.261-1.5489-30.457-0.30187-47.091 0.35466-5.9059-11.115-15.107-12.781 0.89781z" fill="#fff"/>
  <path d="m250.98 292.25 9.5762 46.846 2.4605-48.534c-0.0128-4.2265-12.668-9.2291-12.037 1.6885z" fill="#fff"/>
  <path d="m261.54 290.46c1.1364 8.8388 5.5934 48.04 5.5934 48.04l6.3992-49.306c-1.2968-6.9041-10.323-8.2378-11.993 1.2657z" fill="#fff"/>
  <path d="m272.01 290.96c3.5609 16.646 3.757 32.493 4.1887 48.245 3.3102-16.111 8.2663-32.369 8.8633-48.933-0.70533-9.6017-11.594-13.003-13.052 0.68746z" fill="#fff"/>
  <path d="m227.25 298.77c-0.76434 26.059 4.7192 47.057 15.758 65.338-0.6543-24.071-4.6674-42.766-1.5266-68.171-1.465-14.075-10.358-19.942-14.232 2.8331z" fill="#fff"/>
  <path d="m297.21 296.57c0.15019 25.752-4.4102 42.836-13.437 66.409 2.2614-26.392 2.3459-43.837-0.79487-69.242 1.465-14.075 10.358-19.942 14.232 2.8331z" fill="#fff"/>
  <path d="m238.37 420.6 0.79897-8.8319c2.7257-2.4541 4.4526-2.0968 6.7472 0.81907l-0.96796 11.608c-2.6537 1.107-4.6862-0.89288-6.5782-3.5956z" fill="#fff"/>
  <path d="m245.32 422.59 0.71855-10.35c2.7032-2.9026 4.4334-2.5026 6.7544 0.88717-0.0932 4.7617-0.43418 9.2334-0.86227 13.603-2.6435 1.3245-4.6941-0.99556-6.6106-4.14z" fill="#fff"/>
  <path d="m252.58 425.54c-0.74603-2.593-0.53515-5.6644 0.0599-8.928 2.4974-3.0741 4.2381-3.1298 6.7532-0.78856 0.81229 3.905 0.52397 7.8101 3e-3 11.715-2.5377 1.7242-4.7172 0.22711-6.8158-1.9986z" fill="#fff"/>
  <path d="m260.76 425.35c-0.40223-2.9737-0.91818-5.9474-0.33325-8.9212 2.4021-3.3004 4.1387-3.5167 6.7203-1.4108 0.7833 4.066 0.91631 7.9694 0.35277 11.699-2.4826 1.9561-4.5777 0.6622-6.7398-1.3668z" fill="#fff"/>
  <path d="m268.21 424.7c-2.0723-2.6409-1.3072-5.6365-0.77505-8.603 2.2292-3.6558 3.9485-4.1373 6.6247-2.435 1.8885 4.6753 1.7157 8.2576 0.93182 11.6-2.3761 2.329-4.5269 1.1278-6.7815-0.5622z" fill="#fff"/>
  <path d="m275.88 423.35c-0.23405-3.3676-0.82351-6.1497-0.11748-11.066 2.4348-3.9987 4.1734-4.2001 6.7334-1.4907 1.8569 5.2022 0.99465 9.7813 0.23541 14.514-2.5019 2.3293-4.7098 0.64024-6.8513-1.9577z" fill="#fff"/>
  <path d="m285.01 420.9-1.1218-8.7082c2.0227-4.0094 3.7085-4.7741 6.4643-3.5235 2.4581 4.5743 2.442 8.159 1.5511 11.394-2.2403 2.7129-4.5582 2.1464-6.8935 0.83811z" fill="#fff"/>
  <path d="m198.57 160.22c0 4.3394-2.2386 7.8571-5 7.8571s-5-3.5178-5-7.8571 2.2386-7.8571 5-7.8571 5 3.5178 5 7.8571z" fill="#fff"/>
  <path transform="translate(129.29)" d="m198.57 160.22c0 4.3394-2.2386 7.8571-5 7.8571s-5-3.5178-5-7.8571 2.2386-7.8571 5-7.8571 5 3.5178 5 7.8571z" fill="#fff"/>
  <path d="m360.62-46.684c11.706 47.084 18.289 56.629 8.0812 127.28l34.345-4.0406c-15.408-97.938-20.89-90.788-42.426-123.24z" fill="#fff" fill-opacity=".3878"/>
  <path d="m331.35 416.08c-13.067 4.0766 3.0263 7.4267-20.793 56.137-3.4428 9.3961 9.2136-7.653 46.512-4.2695l-21.072-4.5397c5.2467-0.87442 11.462 0.315 18.372-1.785-7.4282-1.5057 2.9945-9.4516-32.173-0.94955 8.5944-17.549 29.823-35.889 17.752-52.462-19.468-5.8535-34.563-3.8599-34.563-3.8599s-19.388 26.111 25.966 11.728z" fill="#7bb10b"/>
  <path d="m200.12 425.11c13.571 1.7857-1.7139 7.8343 30.072 51.763 4.9965 8.6703-10.385-5.9676-46.558 3.7342l19.988-8.0707c-5.319 0.0342-11.24 2.2673-18.407 1.3778 7.0621-2.7518-4.5642-8.8016 31.539-6.4286-11.464-15.824-35.513-30.271-26.448-48.661 18.183-9.0914 33.396-9.7041 33.396-9.7041s23.561 22.418-23.582 15.989z" fill="#7bb10b"/>
 </g>
</svg>
